<svg width="201" height="201" viewBox="0 0 201 201" fill="none" xmlns="http://www.w3.org/2000/svg">
<path d="M45.1509 55.2624C45.5808 55.4875 46.0724 55.5658 46.5509 55.4854C46.6348 55.4524 46.7095 55.4 46.769 55.3323C46.8284 55.2646 46.8708 55.1837 46.8926 55.0963C46.9144 55.009 46.915 54.9176 46.8944 54.83C46.8738 54.7423 46.8325 54.6608 46.7739 54.5924C46.3739 54.0344 45.2199 53.8154 44.8739 54.3134C44.5999 54.7084 44.8159 55.0384 45.1509 55.2624Z" fill="#191919"/>
<path d="M52.0179 53.5914C52.0829 52.5594 50.4549 53.3914 50.4549 54.0914C50.3919 55.1554 52.0179 54.2494 52.0179 53.5914Z" fill="#191919"/>
<path d="M46.3791 52.1913C46.4934 52.1553 46.5906 52.0786 46.6523 51.9758C46.714 51.873 46.736 51.7512 46.7141 51.6334C46.6141 51.2404 46.1551 51.2334 45.8211 51.2984C45.0696 51.3628 44.3339 51.5513 43.6441 51.8563C43.5886 51.8746 43.5421 51.9131 43.5138 51.9643C43.4856 52.0154 43.4778 52.0753 43.492 52.132C43.5062 52.1886 43.5414 52.2378 43.5904 52.2696C43.6393 52.3014 43.6986 52.3135 43.7561 52.3033C44.6252 52.1867 45.5032 52.1492 46.3791 52.1913Z" fill="#191919"/>
<path d="M49.785 50.9074C49.515 51.1774 49.523 51.4824 49.618 51.5774C49.841 51.8004 50.118 51.5214 50.343 51.4094C50.6445 51.2459 50.9627 51.1152 51.292 51.0194C51.627 50.9634 51.906 50.5194 51.572 50.2374C51.46 50.1254 51.348 50.1254 51.181 50.0704C50.341 50.0704 50.089 50.6034 49.785 50.9074Z" fill="#191919"/>
<path d="M35.7159 104.112C38.0749 104.755 38.7949 105.196 39.2889 104.949C39.3274 104.929 39.3612 104.901 39.3881 104.867C39.415 104.833 39.4344 104.793 39.4449 104.751C39.4555 104.709 39.457 104.665 39.4495 104.622C39.4419 104.579 39.4253 104.538 39.4009 104.502C39.1219 104.056 38.3949 104.065 37.9489 104.002C37.2769 103.902 36.6089 103.783 35.8839 103.667C35.5479 103.611 35.3809 104 35.7159 104.112Z" fill="#191919"/>
<path d="M35.4371 106.959C36.5995 107.361 37.7951 107.66 39.0101 107.852C39.5101 107.852 39.5101 107.145 39.1221 107.015C37.9815 106.633 36.7989 106.39 35.6001 106.291C35.2141 106.232 35.0461 106.847 35.4371 106.959Z" fill="#191919"/>
<path d="M34.8231 109.806C35.6471 110.066 38.7871 111.052 38.7871 110.197C38.7868 110.104 38.7606 110.013 38.7113 109.934C38.662 109.855 38.5916 109.792 38.5081 109.75C37.3351 109.471 36.1611 109.478 34.9901 109.192C34.9487 109.178 34.9048 109.172 34.8611 109.175C34.8174 109.178 34.7747 109.19 34.7359 109.211C34.6971 109.231 34.6629 109.259 34.6354 109.294C34.608 109.328 34.5879 109.367 34.5764 109.41C34.5649 109.452 34.5622 109.496 34.5686 109.539C34.5749 109.583 34.5901 109.624 34.6133 109.662C34.6364 109.699 34.667 109.731 34.7031 109.756C34.7392 109.781 34.7801 109.798 34.8231 109.806Z" fill="#191919"/>
<path d="M29.3 100.762C29.557 99.3624 29.837 97.8574 29.97 96.4624C30.018 95.9624 29.244 95.9044 29.132 96.3504C28.7148 97.7622 28.6006 99.2463 28.797 100.705C28.849 100.985 29.235 101.096 29.3 100.762Z" fill="#191919"/>
<path d="M53.358 123.372C53.8062 120.791 53.8813 118.159 53.581 115.556C50.902 116.226 48.222 116.956 45.481 117.51C45.09 117.566 44.7 118.627 44.42 118.962C43.009 120.657 41.2344 122.012 39.228 122.926C39.061 122.926 38.949 122.814 39.005 122.647C39.787 121.474 41.015 120.86 42.02 119.967C42.52 119.576 43.527 117.845 44.085 117.734C41.7035 118.154 39.2994 118.434 36.885 118.571C38.837 138.847 36.873 158.132 38.671 178.419C38.6713 178.512 38.6976 178.604 38.7468 178.683C38.7961 178.762 38.8665 178.825 38.95 178.866C41.4015 179.861 44.1213 179.98 46.65 179.201C47.825 178.818 49.176 178.475 49.162 177.079C49.106 171.44 48.324 141.238 48.324 137.779C48.324 133.854 48.659 125.764 48.659 125.664C49.999 125.441 51.674 125.329 52.735 124.436C53.0072 124.124 53.2185 123.763 53.358 123.372ZM40.35 149.333C41.521 149.047 43.867 150.058 44.705 150.896C44.7726 150.982 44.8287 151.076 44.872 151.175C45.372 151.957 43.979 151.566 43.811 151.454C40.86 149.979 40.746 150.343 40.238 149.835C40.1984 149.801 40.1689 149.756 40.1526 149.706C40.1362 149.656 40.1336 149.602 40.1451 149.551C40.1565 149.5 40.1816 149.452 40.2177 149.414C40.2537 149.376 40.2994 149.348 40.35 149.333Z" fill="#38A1FF"/>
<path d="M63.3511 176.465C64.1706 176.415 64.9653 176.164 65.6659 175.736C66.3666 175.308 66.952 174.715 67.3711 174.009C68.2311 172.209 65.4371 122.696 65.1941 118.795C63.8329 117.35 62.8208 115.612 62.2351 113.714C59.6031 114.116 56.9942 114.657 54.4191 115.333C54.6526 117.769 54.5962 120.225 54.2511 122.647C54.2562 123.339 54.0192 124.012 53.5811 124.547C55.9031 132.673 57.7811 164.997 58.3271 173.341C58.3751 174.067 58.1591 175.183 58.7731 175.797C59.7221 176.633 62.2911 176.578 63.3511 176.465ZM61.4001 149.612C62.3628 148.788 63.3897 148.041 64.4711 147.379C64.549 147.337 64.6388 147.32 64.7268 147.333C64.8148 147.345 64.8964 147.386 64.9593 147.449C65.0222 147.512 65.063 147.594 65.0756 147.682C65.0881 147.77 65.0718 147.859 65.0291 147.937C64.1541 149.213 61.6461 150.437 61.4001 149.947C61.373 149.896 61.3588 149.838 61.3588 149.78C61.3588 149.722 61.373 149.664 61.4001 149.612Z" fill="#38A1FF"/>
<path d="M63.3 113.602C63.7708 115.067 64.4083 116.472 65.2 117.79C65.088 116.338 65.032 114.942 64.921 113.49C64.356 113.547 63.854 113.547 63.3 113.602Z" fill="#38A1FF"/>
<path d="M31.1379 193.326C31.1939 193.326 31.1939 193.27 31.1379 193.27C31.0819 193.27 31.0819 193.326 31.1379 193.326Z" fill="#191919"/>
<path d="M47.6639 183.221C47.7749 183.276 47.9979 182.272 47.9979 182.16C48.0236 181.498 47.8694 180.842 47.5519 180.26C47.2729 179.701 46.4349 180.092 46.5469 180.651C46.6589 181.21 46.9869 181.876 46.7139 182.493C46.5429 182.882 45.9929 183.169 45.6539 183.442C45.1539 183.842 44.6539 184.173 44.1459 184.559C41.0879 186.884 35.7379 190.935 31.6969 191.705C31.4729 191.76 31.3059 191.872 31.3059 191.537C31.4315 190.742 31.8252 190.013 32.4219 189.471C33.9807 187.773 35.64 186.17 37.3909 184.671C37.5029 184.727 38.6189 185.453 39.0099 185.229C39.0614 185.203 39.1045 185.164 39.1343 185.114C39.164 185.065 39.1791 185.008 39.1779 184.95C39.1779 184.504 38.1779 184.001 38.1169 184.001C38.4519 183.722 38.8429 183.387 39.1779 183.108C39.5129 183.275 40.9079 184.169 41.2989 183.89C41.383 183.815 41.4397 183.713 41.4599 183.602C41.4802 183.491 41.463 183.376 41.4109 183.275C40.9804 182.94 40.5102 182.659 40.0109 182.438C40.4579 182.047 40.8479 181.712 41.2949 181.321C41.3546 181.258 41.3894 181.175 41.3929 181.088C41.3964 181.001 41.3683 180.916 41.3139 180.848C41.2595 180.78 41.1824 180.734 41.0968 180.719C41.0111 180.703 40.9228 180.719 40.8479 180.763C40.2207 181.124 39.6234 181.535 39.0619 181.991C38.9499 181.936 36.9959 181.154 36.1029 180.875C35.8239 180.763 35.6559 181.21 35.8799 181.375C36.6609 181.766 37.4429 182.213 38.2799 182.659C38.0009 182.883 37.2799 183.497 37.2199 183.553C37.2199 183.553 35.5449 182.771 34.7629 182.436C34.2339 182.26 34.0219 182.816 34.3719 183.05C35.0979 183.385 35.7719 183.776 36.4379 184.167C35.6559 184.837 34.9279 185.503 34.1489 186.232C32.5579 187.722 29.4099 190.424 30.4079 192.318C30.5598 192.551 30.7851 192.727 31.0481 192.818C31.3111 192.908 31.5968 192.908 31.8599 192.818C32.5683 192.687 33.2609 192.481 33.9259 192.204C37.276 190.806 40.414 188.945 43.2489 186.677C43.2547 186.733 43.2739 186.787 43.3048 186.834C43.3357 186.881 43.3774 186.919 43.4265 186.947C43.4755 186.974 43.5304 186.989 43.5865 186.991C43.6426 186.993 43.6983 186.981 43.7489 186.956C44.7847 186.71 45.7436 186.212 46.5399 185.505C46.9909 185.119 47.9909 184.388 48.0469 183.718C48.0319 183.609 47.9886 183.506 47.9214 183.419C47.8543 183.332 47.7655 183.264 47.6639 183.221Z" fill="#191919"/>
<path d="M79.1511 180.485C78.0769 179.869 76.9337 179.381 75.7451 179.033C74.4621 178.586 73.2331 178.14 71.9451 177.749C72.5078 177.252 73.0304 176.71 73.5081 176.13C73.6201 175.851 73.2861 175.63 73.0611 175.684C72.2392 176.184 71.4557 176.744 70.7171 177.359C70.2701 177.247 69.8791 177.135 69.4331 177.024C70.0666 176.466 70.6459 175.849 71.1631 175.181C71.1631 175.07 71.0521 174.902 70.9401 174.902C70.0046 175.398 69.1407 176.018 68.3721 176.745C67.6554 176.569 66.9283 176.439 66.1951 176.354C65.7471 176.309 65.7481 176.912 66.0831 177.079C66.5831 177.247 67.1441 177.414 67.6461 177.579C67.1518 178.178 66.7038 178.813 66.3061 179.479C66.1401 179.759 66.5831 180.147 66.8061 179.87C67.3571 179.194 67.9781 178.53 68.5921 177.86C68.9831 177.972 69.8201 178.195 69.8761 178.195C69.3291 178.732 68.8252 179.311 68.3691 179.926C68.3288 179.967 68.2968 180.015 68.275 180.067C68.2532 180.12 68.2419 180.176 68.2419 180.233C68.2419 180.29 68.2532 180.347 68.275 180.399C68.2968 180.452 68.3288 180.5 68.3691 180.54C68.4094 180.581 68.4573 180.613 68.5099 180.634C68.5626 180.656 68.6191 180.668 68.6761 180.668C68.7331 180.668 68.7896 180.656 68.8422 180.634C68.8949 180.613 68.9428 180.581 68.9831 180.54C69.6531 179.87 70.3231 179.2 71.0491 178.53C71.8301 178.753 75.7981 180.139 76.9671 180.596C77.8994 180.845 78.7235 181.394 79.3111 182.159C79.4721 182.442 79.4231 182.438 79.1441 182.494C78.8651 182.55 78.5861 182.608 78.3061 182.661C74.0211 183.479 65.9421 181.317 62.9541 180.819C62.5071 180.707 61.8931 180.707 61.5541 180.372C60.9401 179.758 61.1721 178.472 61.0541 177.693C61.0541 177.553 60.9983 177.418 60.8989 177.319C60.7995 177.219 60.6647 177.163 60.5241 177.163C60.3835 177.163 60.2487 177.219 60.1493 177.319C60.0499 177.418 59.9941 177.553 59.9941 177.693C59.8651 179.014 59.9751 180.752 61.1101 181.433C61.1101 181.433 60.9431 182.215 61.2781 182.382C62.9027 182.824 64.5667 183.104 66.2461 183.22C66.2942 183.21 66.3397 183.19 66.3799 183.162C66.4202 183.134 66.4544 183.098 66.4805 183.056C66.5066 183.014 66.524 182.968 66.5319 182.919C66.5397 182.871 66.5378 182.821 66.5261 182.773C67.1711 182.773 74.0721 184.483 78.3051 183.773C78.9806 183.786 79.6437 183.591 80.2051 183.215C81.1591 182.381 79.9281 180.991 79.1511 180.485Z" fill="#191919"/>
<path d="M195.33 27.7914C194.669 19.2584 193.359 15.7714 189.13 14.5044C174.454 9.00436 116.866 7.12836 95.785 9.42336C92.267 9.80636 88.63 10.1914 85.568 12.1034C75.353 18.4854 70.637 38.1124 68.432 49.9584C68.047 52.0254 67.744 54.1524 67.371 56.2114C67.32 56.4914 67.764 56.6024 67.818 56.3224C69.3441 48.1306 71.4331 40.0538 74.07 32.1494C76.22 26.1294 78.842 19.6684 83.561 15.1774C85.3393 13.376 87.5802 12.1005 90.037 11.4914C105.071 8.19136 149.022 9.81036 169.928 12.1614C184.628 13.8154 186.728 15.1764 187.402 15.1764C187.107 15.3244 184.548 15.5104 180.591 20.2564C168.986 34.1794 164.191 50.6564 161.665 68.4364C158.105 93.4764 156.365 130.479 156.365 155.082C154.988 154.689 94.809 154.673 93.39 154.691C87.472 154.768 81.49 154.783 75.525 155.25C74.91 155.298 74.239 155.29 73.625 155.361C73.5436 155.361 73.4655 155.394 73.4079 155.451C73.3504 155.509 73.318 155.587 73.318 155.668C73.318 155.75 73.3504 155.828 73.4079 155.885C73.4655 155.943 73.5436 155.975 73.625 155.975C79.431 156.003 85.181 155.864 90.987 155.864C120.825 155.864 155.794 156.75 157.312 156.143C157.378 156.144 157.443 156.128 157.501 156.096C157.558 156.063 157.606 156.017 157.64 155.96C157.674 155.904 157.693 155.839 157.694 155.773C157.695 155.707 157.679 155.642 157.647 155.584C157.632 128.706 159.123 101.848 162.113 75.1364C164.159 57.5434 167.429 41.6364 177.075 27.1234C178.684 24.6483 180.475 22.2971 182.435 20.0894C184.24 18.0964 186.677 16.0234 189.525 16.2364C190.238 16.3064 190.911 16.5967 191.452 17.0669C191.992 17.5372 192.372 18.164 192.54 18.8604C196.601 30.5924 193.44 44.3604 190.697 56.4334C190.641 56.3774 190.586 56.2654 190.474 56.2104C183.52 52.7954 174.904 51.6774 171.325 52.1904C171.255 52.1963 171.19 52.2282 171.142 52.2799C171.095 52.3316 171.069 52.3992 171.069 52.4694C171.069 52.5395 171.095 52.6071 171.142 52.6588C171.19 52.7105 171.255 52.7424 171.325 52.7484C177.689 53.3074 184.054 54.5354 189.804 57.3824C189.921 57.4297 190.048 57.4493 190.174 57.4396C190.3 57.4299 190.422 57.3911 190.53 57.3264C190.53 57.3824 190.474 57.4944 190.474 57.5504C190.463 57.5843 190.46 57.6201 190.464 57.6555C190.468 57.6908 190.479 57.725 190.497 57.7558C190.515 57.7865 190.539 57.8133 190.567 57.8343C190.596 57.8553 190.629 57.8702 190.664 57.8779C190.698 57.8856 190.734 57.886 190.769 57.8791C190.804 57.8722 190.837 57.8581 190.866 57.8378C190.896 57.8174 190.92 57.7912 190.939 57.7609C190.957 57.7305 190.969 57.6966 190.974 57.6614C193.112 51.1868 194.572 44.5076 195.33 37.7314C195.541 34.4214 195.541 31.1013 195.33 27.7914Z" fill="#191919"/>
<path d="M150.835 94.9564C151.604 94.3154 152.542 94.0264 152.175 93.1694C152.128 93.0843 152.065 93.0095 151.988 92.9493C151.912 92.8891 151.825 92.8447 151.731 92.8188C151.637 92.7929 151.539 92.786 151.443 92.7985C151.347 92.8109 151.254 92.8425 151.17 92.8914C140.64 100.146 128.239 112.252 121.022 121.531C118.151 118.337 114.952 115.454 111.476 112.931C110.917 112.484 110.136 113.321 110.476 113.931C114.697 120.198 118.484 126.747 121.809 133.531C121.872 133.639 121.961 133.728 122.069 133.789C122.177 133.851 122.299 133.884 122.423 133.884C122.547 133.884 122.669 133.851 122.777 133.789C122.885 133.728 122.974 133.639 123.037 133.531C125.931 128.05 129.637 122.985 133.142 117.955C143.46 103.16 145.771 100.891 150.835 94.9564Z" fill="#38A1FF"/>
<path d="M32.813 117.231C47.747 117.231 55.923 112.089 65.413 111.983C66.213 111.868 68.104 111.845 69.042 111.76C69.2752 111.744 69.5092 111.775 69.7299 111.852C69.9506 111.929 70.1534 112.05 70.326 112.207C70.4536 112.393 70.5122 112.617 70.4918 112.842C70.4713 113.066 70.3731 113.276 70.214 113.435C69.3613 114.452 68.2389 115.206 66.976 115.612C66.753 115.724 66.753 116.112 67.032 116.059C67.7756 115.973 68.4959 115.746 69.154 115.389C70.106 114.913 71.254 114.21 71.442 113.1C71.498 113.1 71.554 113.044 71.61 112.933C71.6729 112.654 71.6535 112.363 71.554 112.095C71.265 110.517 68.2631 87.9434 67.646 83.6234C66.7171 79.0741 65.4673 74.5962 63.906 70.2234C63.8892 70.1656 63.8948 70.1035 63.9217 70.0497C63.9487 69.9958 63.9949 69.9541 64.0513 69.9329C64.1076 69.9116 64.1699 69.9125 64.2257 69.9352C64.2814 69.9579 64.3266 70.0008 64.352 70.0554C66.1279 74.0548 67.5493 78.2024 68.6 82.4504C76.684 76.8404 92.285 65.7104 99.975 59.8914C100.142 59.7244 100.31 59.5564 100.198 59.2774C100.031 58.7194 99.305 57.2674 99.198 56.9884C99.812 56.6534 100.371 56.1514 100.929 55.8164C102.629 54.9664 102.973 55.7164 103.944 55.9284C104.894 56.1788 105.894 56.1788 106.844 55.9284C107.855 55.7658 108.812 55.3636 109.635 54.7554C109.674 54.7122 109.699 54.6589 109.708 54.6017C109.717 54.5445 109.709 54.486 109.685 54.4332C109.662 54.3803 109.624 54.3354 109.575 54.3039C109.526 54.2723 109.47 54.2555 109.412 54.2554C108.916 54.3073 108.429 54.4198 107.96 54.5904C103.493 56.1304 103.323 53.4534 100.591 55.0904C100.013 55.4525 99.454 55.844 98.916 56.2634C98.972 56.2074 97.632 53.2484 97.744 53.1924C98.5305 52.7652 99.2945 52.2979 100.033 51.7924C100.515 51.4499 100.899 50.9882 101.149 50.4524C101.354 49.8321 101.334 49.1594 101.093 48.5524C100.709 47.0434 102.027 46.0264 102.936 45.0354C104.964 42.8493 106.439 40.2088 107.236 37.3354C107.607 37.8143 107.873 38.3659 108.017 38.9544C108.188 39.6889 108.188 40.4528 108.017 41.1874C107.621 42.4854 106.769 43.596 105.617 44.3134C105.561 44.3689 105.524 44.4412 105.513 44.5193C105.502 44.5974 105.516 44.6771 105.554 44.7463C105.591 44.8156 105.651 44.8708 105.723 44.9034C105.794 44.9361 105.875 44.9445 105.952 44.9274C106.781 44.6516 107.49 44.0999 107.961 43.3644C108.508 42.6081 108.857 41.7263 108.974 40.8C109.091 39.8738 108.973 38.933 108.631 38.0644C108.355 37.3384 107.906 36.2784 106.956 36.3344C106.863 36.3372 106.773 36.372 106.702 36.4329C106.631 36.4939 106.583 36.5773 106.566 36.6694C105.878 39.4556 104.539 42.0388 102.658 44.2064C101.823 45.1574 100.671 46.0384 100.313 47.3324C100.176 47.9446 100.215 48.5829 100.424 49.1744C100.513 49.4806 100.513 49.8059 100.425 50.1123C100.336 50.4187 100.163 50.6937 99.924 50.9054C99.1587 51.5381 98.3365 52.0988 97.468 52.5804C97.188 51.6874 96.932 50.7884 96.686 49.8444C96.659 49.7558 96.6094 49.6757 96.5422 49.6119C96.475 49.5481 96.3925 49.5028 96.3026 49.4803C96.2127 49.4579 96.1186 49.4591 96.0293 49.4838C95.94 49.5085 95.8586 49.5559 95.793 49.6214C95.346 50.0124 88.87 52.9714 87.363 53.6964C74.234 60.0174 62.963 65.7514 50.069 67.7654C49.511 67.8214 49.569 68.7654 50.069 68.8824C50.181 68.8824 50.237 68.9384 50.348 68.9384C50.348 68.9934 50.292 69.0494 50.292 69.1614C50.292 70.8014 50.336 71.7514 48.785 72.9614C48.161 73.3421 47.467 73.5939 46.7439 73.7017C46.0209 73.8095 45.2836 73.7712 44.5756 73.589C43.8676 73.4068 43.2034 73.0844 42.6222 72.641C42.0411 72.1976 41.5547 71.6421 41.192 71.0074C40.8787 70.4894 40.6524 69.9235 40.522 69.3324C41.4435 69.4237 42.374 69.3289 43.258 69.0534C43.4305 68.8575 43.5633 68.6299 43.649 68.3834C43.414 65.6834 42.821 61.9454 42.7 61.4614C42.923 61.0704 42.422 60.5144 41.918 60.7354C40.636 61.2984 38.637 61.0134 38.457 59.2834C38.3 57.7754 40.188 57.4414 41.357 57.4414C41.4383 57.4415 41.5184 57.4226 41.591 57.3862C41.6637 57.3499 41.7268 57.2971 41.7754 57.232C41.8239 57.1669 41.8566 57.0913 41.8708 57.0113C41.885 56.9314 41.8803 56.8492 41.857 56.7714C41.2911 54.6046 41.1398 52.3503 41.411 50.1274C41.632 49.0274 41.782 47.8274 42.918 47.9504C43.9617 48.0651 44.9799 48.3481 45.933 48.7884C46.045 48.8434 46.1 48.7884 46.156 48.7324C46.8401 48.2343 47.4762 47.6736 48.056 47.0574C48.228 46.8934 48.556 46.3874 48.894 46.3874H49C50.5399 47.5086 51.9124 48.8433 53.076 50.3514C53.299 51.8584 53.476 53.3654 53.634 54.8734C53.9636 56.571 53.8286 58.3262 53.243 59.9534C52.7149 61.3434 51.6783 62.4808 50.343 63.1354C48.8847 63.7301 47.263 63.7896 45.765 63.3034C45.319 63.1914 45.041 63.8574 45.43 64.0294C45.9937 64.2945 46.5977 64.4635 47.217 64.5294C47.217 65.4814 47.152 68.4294 47.496 68.7724C47.549 68.8178 47.6112 68.8512 47.6783 68.8703C47.7454 68.8894 47.8158 68.8938 47.8848 68.8832C47.9537 68.8726 48.0196 68.8471 48.0778 68.8087C48.136 68.7702 48.1852 68.7196 48.222 68.6604C48.34 68.4181 48.3788 68.1449 48.333 67.8794C48.333 67.7194 48.11 64.6394 48.11 64.5294C48.5862 64.5375 49.06 64.462 49.51 64.3064C50.7217 64.0747 51.8216 63.4459 52.636 62.5194C54.287 60.5274 54.989 58.5784 54.536 55.0944C54.836 55.0944 54.549 55.1654 56.546 54.3134C56.823 54.1954 57.272 54.0894 57.328 53.6984C57.44 53.3084 57.216 53.0294 57.049 52.6984C56.77 52.1394 56.435 51.5814 56.211 51.0234C56.155 50.9114 56.155 50.8554 56.1 50.7444C56.155 50.6884 56.267 50.6324 56.323 50.5764C56.5117 50.2545 56.6788 49.9204 56.823 49.5764C57.2469 48.9149 57.532 48.1743 57.661 47.3994C57.6893 47.0646 57.6132 46.7292 57.4433 46.4394C57.2734 46.1495 57.018 45.9193 56.712 45.7804C54.4364 44.2049 51.957 42.9464 49.342 42.0394C46.82 41.2314 45.66 40.8924 44.82 41.3694C43.569 42.0814 43.571 43.5784 43.034 44.3844C42.5669 43.9052 41.9987 43.5363 41.3709 43.3045C40.7431 43.0727 40.0715 42.9838 39.405 43.0444C37.786 43.2664 37.067 45.0014 36.446 46.2824C35.0102 49.4958 33.8341 52.8191 32.929 56.2204C32.594 57.3364 33.543 57.6204 34.38 57.8954C35.3608 58.2694 36.3688 58.5679 37.395 58.7884V59.4584C37.695 61.2494 39.571 62.4804 41.917 61.7474C41.917 62.7124 42.508 68.1754 42.517 68.2804C42.479 68.2924 40.408 68.7254 40.408 68.7254C40.3763 68.6064 40.3202 68.4954 40.2433 68.3993C40.1663 68.3033 40.0702 68.2243 39.961 68.1674C39.5912 68.1113 39.2149 68.1113 38.845 68.1674C35.607 67.8324 32.317 68.4184 29.075 68.8934C25.8937 69.2591 22.8382 70.3475 20.142 72.0754C-0.552954 84.3324 2.20005 106.053 19.079 111.591C21.0603 112.247 23.1331 112.585 25.22 112.591C26.42 112.591 26.58 112.707 27.007 112.032C27.3488 111.468 27.6294 110.87 27.844 110.246C31.203 111.365 30.854 111.19 30.971 111.307C30.2 115.775 29.656 116.439 30.078 117.001C30.977 117.189 31.8954 117.266 32.813 117.231ZM51.572 44.6544C52.694 45.2544 53.757 45.9254 54.81 46.6084C55.1685 46.7901 55.4756 47.059 55.703 47.3904C55.814 47.6694 55.703 48.0044 55.368 48.0044C54.586 47.9484 53.646 46.9864 53.023 46.5524C52.01 45.8264 50.9467 45.1734 49.841 44.5984C49.171 44.2634 48.389 43.8734 47.719 44.3754C47.496 44.4874 47.273 44.2084 47.44 44.0404C48.668 42.9794 50.405 44.0284 51.572 44.6544ZM40.294 49.9024C39.875 50.3214 39.652 51.6894 39.294 51.6894C39.2277 51.6811 39.1672 51.6471 39.1255 51.5948C39.0838 51.5425 39.0643 51.4759 39.071 51.4094C39.0921 50.6754 39.3913 49.9769 39.908 49.4554C39.9593 49.4236 40.019 49.4081 40.0792 49.4108C40.1395 49.4135 40.1975 49.4343 40.2458 49.4704C40.294 49.5066 40.3303 49.5565 40.3498 49.6135C40.3693 49.6706 40.3711 49.7322 40.355 49.7904C40.294 49.7914 40.294 49.8464 40.294 49.9024ZM39.178 47.5574C39.908 47.8014 38.335 49.4194 37.838 50.6284C37.726 50.8514 37.338 50.6844 37.391 50.4604C37.5971 49.4431 38.0366 48.4877 38.675 47.6694C38.7352 47.5985 38.817 47.5491 38.9077 47.5289C38.9985 47.5087 39.0934 47.5187 39.178 47.5574ZM37.838 45.5474C37.9123 45.4857 38.0051 45.4508 38.1016 45.4483C38.198 45.4458 38.2926 45.4759 38.3699 45.5336C38.4472 45.5913 38.5029 45.6734 38.528 45.7665C38.553 45.8597 38.546 45.9586 38.508 46.0474C38.2815 46.4397 37.9992 46.7971 37.67 47.1084C36.7823 48.3396 36.1729 49.7492 35.884 51.2394C35.8724 51.2796 35.8463 51.3141 35.8108 51.3364C35.7754 51.3587 35.733 51.3672 35.6917 51.3603C35.6503 51.3534 35.613 51.3315 35.5867 51.2989C35.5604 51.2663 35.547 51.2252 35.549 51.1834C35.6515 50.168 35.8955 49.172 36.274 48.2244C36.823 47.2684 36.965 46.2754 37.838 45.5474ZM28.068 100.762C28.0425 100.654 27.9872 100.554 27.9082 100.475C27.8292 100.396 27.7298 100.341 27.621 100.315C25.221 99.7084 22.485 98.6964 21.145 96.4634C18.475 92.0134 24.545 87.3084 29.463 86.6934C29.463 86.7494 29.463 86.7494 29.519 86.8054V86.8614C30.5089 89.5403 31.1476 92.3363 31.419 95.1794C31.5802 96.9617 31.5989 98.754 31.475 100.539C31.4858 100.699 31.554 100.849 31.6669 100.962C31.7798 101.074 31.9297 101.143 32.089 101.153C33.7067 101.258 35.3125 101.501 36.889 101.878C38.0919 102.043 39.2288 102.526 40.182 103.278C40.2718 103.345 40.3476 103.428 40.4051 103.524C40.4625 103.62 40.5006 103.726 40.517 103.836C40.629 104.283 40.286 104.614 40.127 104.953C39.657 105.948 40.071 107.075 40.071 108.079C40.071 109.14 39.85 110.818 38.954 111.541C38.119 112.214 36.889 112.041 35.94 111.932C35.325 111.82 28.012 109.978 28.012 109.922C28.8898 106.935 28.9092 103.76 28.068 100.762ZM48.557 100.315C51.773 101.744 53.6 101.955 54.757 102.604C54.7946 102.624 54.8238 102.657 54.8396 102.696C54.8554 102.735 54.8566 102.779 54.8432 102.819C54.8297 102.86 54.8024 102.894 54.7661 102.916C54.7298 102.938 54.6869 102.946 54.645 102.939C53.5426 102.855 52.4645 102.571 51.463 102.102C50.406 101.702 49.341 101.264 48.281 100.762C48 100.591 48.278 100.148 48.557 100.315ZM59.443 100.706C59.0477 100.659 58.6561 100.585 58.271 100.483C57.1711 100.196 56.0897 99.8418 55.033 99.4224C50.7523 97.7784 46.7722 95.4393 43.253 92.4994C43.033 92.3274 43.31 92.0514 43.532 92.2204C51.894 98.5644 58.426 99.5974 59.555 100.32C59.778 100.371 59.722 100.706 59.443 100.706Z" fill="#191919"/>
<path d="M103.045 137.609C107.176 142.117 112.835 144.928 118.923 145.495C125.01 146.062 131.091 144.346 135.984 140.679C143.732 134.762 147.615 124.812 143.13 116.952C142.415 115.699 141.261 116.213 141.958 117.734C145.225 124.862 142.514 132.634 137.101 137.776C128.439 145.998 115.014 146.748 105.893 138.669C95.506 129.469 96.393 112.585 108.014 102.939C114.092 97.8944 121.383 96.0454 128.336 99.5894C126.863 97.9359 124.795 96.9326 122.585 96.7984C117.566 96.1984 112.485 98.0884 108.405 101.041C96.627 109.567 93.325 126.756 103.045 137.609Z" fill="#38A1FF"/>
<path d="M152.454 45.1014C148.378 42.8684 143.743 45.2354 139.39 44.9894C134.866 44.7344 131.352 41.3444 126.884 40.8584C125.84 40.6837 124.769 40.7487 123.754 41.0486C122.738 41.3485 121.804 41.8754 121.022 42.5894C120.856 42.7584 121.078 42.9794 121.301 42.8684C122.077 42.2734 122.974 41.8552 123.929 41.6429C124.883 41.4307 125.873 41.4294 126.828 41.6394C128.844 42.0695 130.783 42.8039 132.579 43.8174C137.979 46.5174 139.167 46.4314 145.196 45.6034C147.543 45.2814 149.996 44.9894 152.23 45.8824C152.565 45.9384 152.844 45.2684 152.454 45.1014Z" fill="#191919"/>
<path d="M100.087 71.4524C104.301 69.3957 109.108 68.8997 113.653 70.0524C116.815 70.8524 119.768 72.8774 122.865 73.4024C130.814 74.7504 138.724 68.4114 146.703 73.4584C146.8 73.511 146.913 73.5273 147.021 73.5044C147.128 73.4816 147.225 73.421 147.292 73.3336C147.359 73.2462 147.393 73.1376 147.388 73.0275C147.382 72.9173 147.338 72.8127 147.262 72.7324C145.091 70.7764 141.847 70.3404 139.055 70.4434C133.872 70.6344 128.955 72.8654 124.149 72.5644C120.284 72.3234 118.297 70.5274 114.49 69.4384C109.53 68.129 104.256 68.7684 99.7521 71.2254C99.5841 71.2294 99.8071 71.5644 100.087 71.4524Z" fill="#191919"/>
<path d="M76.9731 84.0694C76.7501 84.0124 76.6391 84.3484 76.8061 84.4044C85.5161 88.1714 97.0331 81.1044 104.106 82.4504C106.397 82.8874 108.406 84.1254 110.526 85.0744C118.65 88.7084 122.626 87.3214 131.295 85.2974C134.696 84.3455 138.273 84.2118 141.735 84.9074C142.856 85.2224 143.941 85.6527 144.973 86.1914C145.309 86.3554 145.755 85.9104 145.419 85.6324C142.383 83.1204 137.48 83.2324 133.584 83.8464C125.973 85.0524 121.203 88.1974 112.648 84.9074C110.471 84.0694 108.463 82.9464 106.283 82.1154C97.6521 78.8244 88.9581 87.1314 76.9731 84.0694Z" fill="#191919"/>
<path d="M145.308 58.3914C146.446 58.716 147.565 59.1074 148.657 59.5634C149.216 59.7314 149.446 58.9974 149.048 58.6704C148.17 58.0775 147.185 57.6605 146.148 57.4424C135.248 54.3274 124.839 61.0424 119.295 56.4374C119.02 56.2094 118.625 56.6054 118.904 56.8284C124.4 62.3204 135.3 55.6394 145.308 58.3914Z" fill="#191919"/>
<path d="M158.539 31.1444C152.798 28.6444 146.239 31.8094 140.116 30.1444C136.509 29.1604 133.766 26.7514 130.122 25.6784C122.516 23.4374 115.566 29.0704 107.568 28.2464C101.553 27.6254 98.1859 23.8464 91.8239 24.8964C89.2159 25.3284 86.7906 26.5117 84.8449 28.3014C84.6219 28.4694 84.9569 28.7484 85.1239 28.5814C86.9969 27.082 89.2295 26.0985 91.5999 25.7284C99.6999 24.4094 102.982 31.2584 114.043 28.7994C119.452 27.5994 124.064 25.4294 128.67 26.2874C133.17 27.1254 136.793 30.8374 141.957 31.4234C147.372 32.0384 153.1 29.8954 158.257 32.1494C158.878 32.4194 159.157 31.4134 158.539 31.1444Z" fill="#191919"/>
<path d="M82.4999 38.2344C84.7507 39.9063 87.5165 40.7361 90.3159 40.5794C92.6849 40.4874 95.0399 39.7704 96.8469 39.9094C97.6166 39.9695 98.3813 40.0814 99.1359 40.2444C99.5829 40.3044 99.9179 39.6854 99.4709 39.4624C97.3509 38.2504 93.7439 39.3624 90.9849 39.7414C89.5874 39.9252 88.168 39.8496 86.7979 39.5184C85.4179 39.1077 84.0738 38.5849 82.7789 37.9554C82.5559 37.7314 82.2769 38.0114 82.4999 38.2344Z" fill="#191919"/>
<path d="M80.267 51.8563C81.7638 51.6364 83.2765 51.543 84.789 51.5773C85.2906 51.6707 85.8067 51.6516 86.3 51.5213C86.3432 51.4905 86.3794 51.4508 86.406 51.4049C86.4326 51.3589 86.4491 51.3079 86.4544 51.255C86.4597 51.2022 86.4537 51.1489 86.4367 51.0986C86.4198 51.0483 86.3923 51.0022 86.356 50.9633C85.8907 50.7273 85.3671 50.6304 84.848 50.6843C83.245 50.6577 81.6465 50.8645 80.103 51.2983C80.0632 51.3062 80.0255 51.3223 79.9923 51.3456C79.959 51.3688 79.931 51.3988 79.91 51.4335C79.8889 51.4682 79.8754 51.5069 79.8701 51.5471C79.8649 51.5873 79.8681 51.6282 79.8795 51.6671C79.891 51.7061 79.9104 51.7422 79.9366 51.7732C79.9627 51.8042 79.9951 51.8294 80.0316 51.8472C80.068 51.865 80.1078 51.875 80.1483 51.8766C80.1889 51.8782 80.2293 51.8713 80.267 51.8563Z" fill="#191919"/>
<path d="M48.948 57.4914C49.019 58.2004 50.63 57.4164 50.848 56.8774C50.959 56.5984 50.907 56.1034 50.457 56.2634C50.1692 56.4067 49.9201 56.6173 49.731 56.8774C49.562 57.0484 48.948 57.2164 48.948 57.4914Z" fill="#191919"/>
<path d="M110.526 44.9914C110.867 44.6672 111.118 44.2603 111.255 43.8103C111.392 43.3603 111.41 42.8825 111.308 42.4234C111.298 42.3787 111.274 42.3386 111.238 42.3099C111.202 42.2812 111.158 42.2655 111.112 42.2655C111.067 42.2655 111.022 42.2812 110.987 42.3099C110.951 42.3386 110.927 42.3787 110.917 42.4234C110.628 43.4727 109.948 44.3715 109.017 44.9354C108.681 45.1564 106.337 46.1084 106.951 46.7224C107.55 47.5154 109.85 45.7754 110.526 44.9914Z" fill="#191919"/>
<path d="M106.786 49.1214C110.707 49.4474 112.837 47.6304 112.986 46.6084C112.998 46.551 112.993 46.4915 112.972 46.4368C112.951 46.3821 112.915 46.3345 112.869 46.2994C112.822 46.2643 112.766 46.2432 112.708 46.2386C112.649 46.234 112.591 46.2461 112.539 46.2734C112.039 46.5524 111.704 47.0024 111.199 47.3344C109.871 48.1441 108.344 48.5692 106.789 48.5624C106.451 48.5684 106.451 49.0654 106.786 49.1214Z" fill="#191919"/>
<path d="M107.288 50.9634C108.321 51.6514 110.916 51.1314 112.088 50.7404C112.377 50.6787 112.65 50.558 112.89 50.386C113.13 50.2139 113.332 49.9941 113.483 49.7404C113.511 49.6914 113.524 49.635 113.518 49.5787C113.513 49.5225 113.491 49.4692 113.454 49.4263C113.417 49.3834 113.368 49.353 113.313 49.3392C113.258 49.3254 113.201 49.329 113.148 49.3494C112.018 49.8937 110.814 50.2696 109.575 50.4654C108.935 50.6334 108.262 50.6334 107.621 50.4654C107.233 50.2914 106.953 50.7404 107.288 50.9634Z" fill="#191919"/>
<path d="M49.0001 61.0124C49.1151 60.7344 48.8891 60.3984 48.5541 60.5654C48.4401 60.6344 47.5741 61.3124 46.8231 61.0124C46.476 60.879 46.1889 60.6246 46.0145 60.2963C45.8401 59.9679 45.7902 59.5876 45.8741 59.2254C47.2154 59.7849 48.6718 60.0134 50.1201 59.8914C50.2321 59.8914 50.2321 59.6684 50.1201 59.6684C49.2831 59.4454 48.4451 59.2774 47.6641 58.9984C47.2731 58.8864 46.8261 58.7194 46.4351 58.6074C45.0951 58.0334 44.8681 59.5494 45.4301 60.7294C46.1321 62.2054 48.5371 62.1384 49.0001 61.0124Z" fill="#191919"/>
<path d="M108.8 53.3634C110.613 54.0434 112.864 53.1074 113.21 52.4144C113.224 52.3776 113.23 52.3379 113.225 52.2987C113.221 52.2594 113.207 52.2218 113.185 52.189C113.164 52.1561 113.134 52.129 113.1 52.1099C113.065 52.0909 113.026 52.0804 112.987 52.0794C112.423 52.1734 111.057 53.3704 108.911 52.9174C108.853 52.9054 108.792 52.9164 108.742 52.9481C108.692 52.9797 108.656 53.0295 108.642 53.0871C108.627 53.1447 108.636 53.2056 108.665 53.2571C108.695 53.3086 108.743 53.3467 108.8 53.3634Z" fill="#191919"/>
</svg>
