<svg width="201" height="201" viewBox="0 0 201 201" fill="none" xmlns="http://www.w3.org/2000/svg">
<path d="M76.2999 73.5333C76.3378 74.9348 76.2917 76.3373 76.1619 77.7333C76.1615 77.8557 76.1135 77.9731 76.0282 78.0608C75.9428 78.1485 75.8267 78.1997 75.7044 78.2034C75.5821 78.2072 75.4631 78.1633 75.3725 78.081C75.2819 77.9987 75.2269 77.8844 75.2189 77.7623C74.9914 76.1988 74.8841 74.6202 74.8979 73.0403C74.8954 72.8865 74.9436 72.7362 75.0351 72.6126C75.1265 72.489 75.2561 72.3989 75.4039 72.3563C76.7959 71.9893 77.1489 70.2283 77.0349 68.7923C77.0196 68.6128 77.0731 68.4341 77.1844 68.2925C77.2958 68.1509 77.4568 68.0568 77.6349 68.0293C78.5729 67.8923 79.3809 67.1973 78.9459 66.3633C78.7705 66.0064 78.4665 65.7291 78.0949 65.5873C77.9842 65.569 77.8853 65.5075 77.8199 65.4162C77.7545 65.325 77.7281 65.2115 77.7464 65.1008C77.7647 64.9901 77.8262 64.8912 77.9175 64.8258C78.0087 64.7604 78.1222 64.734 78.2329 64.7523C78.6366 64.7886 79.0248 64.9254 79.3621 65.1502C79.6994 65.375 79.975 65.6806 80.1639 66.0393C80.8039 67.1963 80.1299 68.7293 78.4859 69.2743C78.4819 71.0183 77.8889 72.8243 76.2999 73.5333Z" fill="#292F75"/>
<path d="M71.2869 74.1673C71.0963 75.4707 71.1196 76.7964 71.3559 78.0923C71.4789 78.7313 72.1809 78.6663 72.2759 78.0713C72.4092 76.7711 72.3627 75.4588 72.1379 74.1713C72.0189 73.5933 71.4199 73.6163 71.2869 74.1673Z" fill="#292F75"/>
<path d="M100.916 82.5623C96.1177 80.7851 91.1124 79.6271 86.0211 79.1163C76.3981 78.2693 66.6051 80.1583 58.9211 86.3343C54.5671 89.8343 51.2911 94.6183 48.6921 99.6183C47.4541 102.001 46.2771 104.336 46.1171 107.005C45.7421 113.286 51.4801 121.549 56.9171 124.465C57.0241 124.526 57.1509 124.542 57.2696 124.509C57.3883 124.477 57.4892 124.398 57.5501 124.291C57.6109 124.184 57.6268 124.057 57.5941 123.939C57.5615 123.82 57.4831 123.719 57.3761 123.658C51.9871 120.49 47.1461 112.258 47.4921 107.093C47.6551 104.664 48.8921 102.277 49.9291 100.271C52.3051 95.3676 55.6612 91.0031 59.7901 87.4473C67.2031 81.4733 76.5181 79.7643 85.9021 80.4703C90.9084 80.8635 95.8525 81.834 100.636 83.3623C100.744 83.3981 100.862 83.3907 100.965 83.3417C101.068 83.2927 101.148 83.2058 101.188 83.0993C101.222 82.992 101.213 82.8757 101.162 82.7753C101.111 82.6749 101.023 82.5984 100.916 82.5623Z" fill="#292F75"/>
<path d="M94.9629 78.1233C98.3279 78.7333 99.2899 74.7933 98.3419 71.3633C98.1669 70.7303 97.5089 69.1513 96.8939 69.4943C96.4719 69.7063 96.6869 70.0263 96.8939 71.0633C97.4939 73.7473 97.6619 76.6943 94.9629 77.2783C94.8493 77.279 94.7403 77.3236 94.6589 77.4029C94.5774 77.4821 94.5298 77.5897 94.5259 77.7033C94.5295 77.8165 94.5773 77.9237 94.6589 78.0022C94.7406 78.0807 94.8496 78.1241 94.9629 78.1233Z" fill="#292F75"/>
<path d="M100.089 72.9653C100.263 73.8803 100.308 75.8423 101.031 75.8313C101.543 75.8223 101.675 74.7973 101.675 74.4433C101.701 73.272 101.449 72.1112 100.939 71.0563C100.773 70.7423 100.125 70.0483 99.7669 70.2563C99.2639 70.5413 99.9279 72.1433 100.089 72.9653Z" fill="#292F75"/>
<path d="M102.226 72.5513C102.295 72.8613 102.387 73.1643 102.479 73.4743C102.574 73.8953 102.779 75.3173 103.422 75.2963C103.75 75.2843 104.243 74.5813 103.835 73.0563C103.772 72.7798 103.687 72.5087 103.582 72.2453C103.382 71.7453 102.771 71.1803 102.456 71.3233C102.1 71.4703 102.135 72.2213 102.226 72.5513Z" fill="#292F75"/>
<path d="M104.732 74.9613C104.877 75.7933 104.843 77.5243 105.513 77.5613C106.671 77.6253 106.184 73.8833 105.628 72.9463C105.565 72.7843 105.022 71.9303 104.617 72.0993C103.954 72.3483 104.6 74.2103 104.732 74.9613Z" fill="#292F75"/>
<path d="M66.2069 89.1663C65.593 93.7677 65.3472 98.4108 65.4719 103.051C65.3939 107.706 65.7717 112.357 66.5999 116.937C66.6207 117.055 66.6863 117.16 66.7829 117.231C66.8796 117.302 66.9998 117.332 67.1184 117.317C67.2371 117.301 67.345 117.24 67.4196 117.146C67.4943 117.052 67.5298 116.933 67.5189 116.814C66.4949 100.442 67.0589 102.288 67.0589 89.2143C67.0636 89.1591 67.0571 89.1035 67.0398 89.0509C67.0226 88.9983 66.995 88.9496 66.9586 88.9078C66.9223 88.8661 66.8779 88.832 66.8281 88.8077C66.7784 88.7834 66.7242 88.7693 66.6689 88.7663C66.5552 88.7604 66.4435 88.7987 66.3574 88.8733C66.2713 88.9478 66.2174 89.0528 66.2069 89.1663Z" fill="#292F75"/>
<path d="M96.3879 71.7793C96.3589 71.6806 96.309 71.5893 96.2415 71.5116C96.1741 71.4339 96.0906 71.3717 95.9969 71.3293C94.8503 70.771 93.6587 70.3101 92.4349 69.9513C92.7023 69.2294 92.8114 68.4584 92.7548 67.6906C92.6982 66.9229 92.4773 66.1762 92.1069 65.5013C89.4829 60.8603 81.2539 62.2253 81.2539 68.0733C81.2539 73.0413 87.4329 75.5153 91.0259 72.0823C92.5016 72.8493 94.0236 73.5239 95.5829 74.1023C95.6787 74.1406 95.7817 74.1578 95.8847 74.1528C95.9878 74.1478 96.0886 74.1206 96.1802 74.0732C96.2719 74.0257 96.3522 73.9591 96.4158 73.8779C96.4795 73.7966 96.5248 73.7026 96.5489 73.6023C96.6519 72.9909 96.5965 72.3632 96.3879 71.7793ZM90.0639 71.0443C89.2351 71.817 88.1441 72.2467 87.0109 72.2467C85.8777 72.2467 84.7867 71.817 83.9579 71.0443C83.2996 70.4329 82.8609 69.6217 82.7096 68.736C82.5583 67.8504 82.7028 66.9396 83.1209 66.1443C83.4111 65.5044 83.8557 64.9466 84.4149 64.5211C84.974 64.0956 85.6302 63.8157 86.3243 63.7066C87.0184 63.5976 87.7287 63.6627 88.3915 63.8962C89.0542 64.1297 89.6485 64.5242 90.1209 65.0443C90.5211 65.4365 90.838 65.9054 91.0525 66.423C91.2671 66.9406 91.375 67.4961 91.3697 68.0564C91.3643 68.6167 91.2459 69.1701 91.0216 69.6836C90.7972 70.197 90.4715 70.6598 90.0639 71.0443Z" fill="#292F75"/>
<path d="M107.49 78.2893C107.76 78.4553 108.339 78.7123 109.352 79.2073C109.8 79.4003 110.578 79.7323 110.846 79.3203C111.388 78.4903 108.878 77.3023 107.996 77.0203C107.81 76.9613 106.896 76.7683 106.732 77.1403C106.5 77.5483 107.257 78.1483 107.49 78.2893Z" fill="#292F75"/>
<path d="M111.168 81.3003C107.82 77.8103 100.5 76.0193 97.3299 79.9953C97.2565 80.0921 97.2227 80.2132 97.2356 80.334C97.2484 80.4548 97.3068 80.5661 97.3989 80.6453C97.4453 80.6837 97.4989 80.7124 97.5565 80.7299C97.6141 80.7474 97.6746 80.7533 97.7345 80.7473C97.7944 80.7412 97.8525 80.7234 97.9054 80.6947C97.9584 80.666 98.0051 80.6272 98.0429 80.5803C100.843 77.2463 107.423 79.0353 110.243 82.1493C114.743 86.9933 111.569 96.6083 104.451 97.4853C98.1498 98.0268 91.8361 96.5961 86.3839 93.3913C86.2755 93.33 86.1529 93.2983 86.0284 93.2995C85.9039 93.3006 85.7819 93.3345 85.6747 93.3977C85.5674 93.461 85.4787 93.5514 85.4175 93.6598C85.3563 93.7682 85.3247 93.8908 85.3259 94.0153C85.4199 98.3423 85.9509 101.115 86.0849 104.729C86.2229 107.41 86.6849 114.711 86.6849 114.876C84.1169 117.916 81.9489 121.161 79.2139 123.866C77.2599 122.911 75.2379 121.871 73.1689 120.991C72.0939 120.526 68.9939 119.391 68.8929 119.365C68.6054 119.312 68.3084 119.349 68.0429 119.471C65.8854 120.694 63.8121 122.06 61.8369 123.56C60.4529 122.727 58.7869 122.19 58.6419 121.103C57.9587 114.359 57.6363 107.582 57.6759 100.803C57.6775 100.691 57.6342 100.582 57.5557 100.501C57.4771 100.42 57.3696 100.374 57.2569 100.372C57.1442 100.371 57.0354 100.414 56.9546 100.493C56.8738 100.571 56.8275 100.679 56.8259 100.791C56.5728 107.61 56.7341 114.438 57.3089 121.237C57.5089 123.307 60.0639 123.911 61.4459 124.955C61.566 125.044 61.7118 125.092 61.8612 125.09C62.0107 125.089 62.1555 125.038 62.2739 124.947C62.3909 124.854 62.5129 124.766 62.6339 124.676C63.5759 130.345 64.2589 136.041 64.7789 141.752C66.4959 159.89 65.5789 160.319 66.5949 160.641C66.7309 160.683 66.8762 160.682 67.0116 160.638C67.147 160.595 67.2661 160.512 67.3529 160.399C69.9381 157.237 72.1158 153.762 73.8349 150.057C75.4779 146.257 73.6099 141.567 73.3529 137.722C73.0922 135.66 72.9769 133.582 73.0079 131.503C74.398 133.233 75.4012 135.241 75.9499 137.391C76.9936 141.157 76.8818 145.15 75.6289 148.851C73.3849 156.026 68.4289 162.21 63.4229 167.651C62.7099 168.426 61.9749 169.186 61.2159 169.918C61.092 170.035 61.0144 170.193 60.9975 170.362C60.9806 170.532 61.0255 170.701 61.1239 170.84C62.3646 172.701 63.7811 174.439 65.3539 176.029C65.4204 176.094 65.4995 176.144 65.5862 176.177C65.673 176.21 65.7655 176.224 65.8581 176.22C65.9507 176.215 66.0414 176.192 66.1246 176.151C66.2078 176.11 66.2818 176.053 66.3419 175.982C71.4049 169.967 83.6419 157.954 86.9139 148.294C88.0631 144.542 88.5076 140.609 88.2249 136.694C87.6644 130.859 86.5227 125.095 84.8169 119.486C88.2659 115.069 88.0699 115.625 88.1099 115.096C88.1099 113.344 87.6939 108.196 87.5099 104.664C87.3699 101.609 86.8649 97.7843 86.7749 95.2193C89.6091 96.7732 92.6744 97.8618 95.8539 98.4433C98.7462 98.9978 101.702 99.1422 104.635 98.8723C112.79 97.8383 116.522 86.9493 111.168 81.3003Z" fill="#292F75"/>
<path d="M74.8271 177.178L74.7351 177.168C74.9931 172.118 74.8091 173.252 74.8731 169.752C74.8792 169.609 74.8409 169.466 74.7633 169.345C74.6857 169.224 74.5727 169.13 74.4395 169.075C74.3064 169.02 74.1596 169.008 74.0193 169.04C73.8789 169.071 73.7517 169.146 73.6551 169.252C72.1991 170.845 70.9011 171.994 68.6211 174.452C68.5435 174.542 68.4902 174.651 68.466 174.767C68.4419 174.883 68.4477 175.004 68.4831 175.117C68.7204 176.034 68.8968 176.965 69.0111 177.905C69.0336 178.071 69.1163 178.223 69.2436 178.332C69.3708 178.441 69.5336 178.5 69.7011 178.496C72.1321 178.41 73.1601 178.096 74.8011 178.018C74.8566 178.02 74.9119 178.01 74.9638 177.991C75.0157 177.971 75.0632 177.941 75.1035 177.903C75.1439 177.864 75.1763 177.819 75.199 177.768C75.2216 177.717 75.2341 177.662 75.2356 177.607C75.2371 177.551 75.2276 177.496 75.2078 177.444C75.1879 177.392 75.158 177.345 75.1198 177.304C75.0816 177.264 75.0358 177.232 74.9851 177.209C74.9343 177.186 74.8796 177.174 74.8241 177.172L74.8271 177.178Z" fill="#292F75"/>
<path d="M65.7701 180.41C67.1111 181.151 70.6841 182.39 70.3451 184.447C70.1361 185.714 67.5311 185.634 66.1381 185.617C61.5901 185.559 61.4771 184.508 59.4261 181.165C57.3191 177.718 55.3711 175.877 58.9441 172.693C58.9833 172.654 59.03 172.622 59.0815 172.6C59.133 172.579 59.1883 172.568 59.2441 172.568C59.2999 172.568 59.3552 172.579 59.4067 172.6C59.4582 172.622 59.5049 172.654 59.5441 172.693C59.6221 172.774 59.6657 172.881 59.6657 172.993C59.6657 173.105 59.6221 173.213 59.5441 173.293C57.0741 176.139 58.4671 176.969 60.6251 180.435C61.6191 182.029 62.2331 183.766 64.0041 184.035C65.6296 184.27 67.281 184.262 68.9041 184.011C68.4131 183.025 65.5161 181.939 64.7901 181.34C64.7087 181.286 64.6412 181.214 64.5933 181.129C64.5453 181.044 64.5182 180.949 64.5141 180.851L64.3761 176.651C64.3647 176.529 64.4022 176.408 64.4804 176.313C64.5586 176.219 64.6711 176.16 64.7931 176.148C64.9151 176.137 65.0366 176.174 65.131 176.253C65.2253 176.331 65.2847 176.443 65.2961 176.565C65.3841 177.426 65.3181 176.551 65.7701 180.41Z" fill="#292F75"/>
<path d="M83.654 182.541C82.087 180.851 78.761 182.162 74.988 179.026C74.9 178.959 74.8397 178.862 74.8186 178.753C74.7974 178.644 74.8167 178.532 74.873 178.436C74.9403 178.345 75.0406 178.283 75.1527 178.264C75.2648 178.246 75.3797 178.271 75.473 178.336C79.352 180.614 83.016 179.436 84.873 181.76C84.993 181.898 85.0804 182.062 85.1286 182.239C85.1768 182.415 85.1847 182.6 85.1515 182.78C85.1184 182.96 85.0451 183.131 84.9372 183.278C84.8292 183.426 84.6894 183.548 84.528 183.634C83.7332 184.05 82.8677 184.314 81.976 184.411C78.267 184.758 75.686 185.211 72.23 184.52C72.1087 184.505 71.9984 184.442 71.9234 184.346C71.8483 184.249 71.8148 184.127 71.83 184.005C71.8453 183.884 71.9081 183.774 72.0047 183.699C72.1013 183.624 72.2237 183.59 72.345 183.605C75.5194 183.603 78.6904 183.4 81.839 182.996C82.4585 182.91 83.0669 182.757 83.654 182.541Z" fill="#292F75"/>
<path d="M69.287 179.519C69.072 180.216 69.072 180.962 69.287 181.658C69.367 181.9 69.517 182.107 69.77 182.092C70.023 182.077 70.136 181.849 70.207 181.604C70.3736 180.918 70.3497 180.198 70.138 179.524C69.946 178.91 69.452 178.996 69.287 179.519Z" fill="#292F75"/>
<path d="M143.1 36.3523C143.095 36.2354 143.043 36.1254 142.957 36.0462C142.871 35.967 142.757 35.925 142.64 35.9293L123.332 35.6563C123.146 35.6563 122.968 35.7301 122.837 35.8613C122.706 35.9926 122.632 36.1707 122.632 36.3563V58.4193C122.631 58.5118 122.649 58.6036 122.683 58.6893C122.718 58.7751 122.77 58.8531 122.835 58.9188C122.9 58.9846 122.977 59.0367 123.063 59.0724C123.148 59.108 123.24 59.1263 123.332 59.1263H142.64C142.825 59.1234 143.001 59.0474 143.13 58.9149C143.26 58.7825 143.331 58.6043 143.329 58.4193L143.1 36.3523ZM142.157 36.7883C141.284 36.8113 125.274 37.0473 124.033 37.0483V57.7103H141.95C141.923 56.0513 142.13 38.1933 142.153 36.7883H142.157Z" fill="#0052FF"/>
<path d="M143.1 69.4523C143.095 69.3354 143.043 69.2254 142.957 69.1462C142.871 69.0669 142.757 69.0249 142.64 69.0293L123.332 68.7563C123.24 68.7563 123.149 68.7744 123.064 68.8096C122.979 68.8447 122.902 68.8963 122.837 68.9613C122.772 69.0263 122.721 69.1035 122.685 69.1884C122.65 69.2733 122.632 69.3644 122.632 69.4563V91.5193C122.631 91.6118 122.649 91.7036 122.683 91.7893C122.718 91.8751 122.77 91.953 122.835 92.0188C122.9 92.0845 122.977 92.1367 123.063 92.1723C123.148 92.208 123.24 92.2263 123.332 92.2263H142.64C142.825 92.2234 143.001 92.1474 143.13 92.0149C143.26 91.8824 143.331 91.7043 143.329 91.5193L143.1 69.4523ZM142.157 69.8883C141.284 69.9113 125.274 70.1473 124.033 70.1483V90.8103H141.95C141.923 89.1513 142.13 71.2933 142.153 69.8883H142.157Z" fill="#0052FF"/>
<path d="M142.692 102.552C142.686 102.435 142.635 102.325 142.549 102.246C142.463 102.167 142.349 102.125 142.232 102.129L122.924 101.856C122.738 101.856 122.56 101.93 122.429 102.061C122.298 102.193 122.224 102.371 122.224 102.556V124.623C122.223 124.716 122.24 124.808 122.275 124.893C122.31 124.979 122.361 125.057 122.426 125.123C122.492 125.189 122.569 125.241 122.654 125.276C122.74 125.312 122.831 125.33 122.924 125.33H142.232C142.417 125.328 142.594 125.252 142.723 125.119C142.852 124.987 142.924 124.808 142.922 124.623L142.692 102.552ZM141.749 102.987C140.876 103.01 124.866 103.247 123.625 103.248V123.91H141.542C141.519 122.251 141.726 104.393 141.749 102.987Z" fill="#0052FF"/>
<path d="M143.1 133.834C143.095 133.717 143.044 133.607 142.957 133.528C142.871 133.449 142.757 133.407 142.64 133.411L123.332 133.138C123.146 133.138 122.968 133.212 122.837 133.343C122.706 133.475 122.632 133.653 122.632 133.838V155.9C122.631 155.993 122.649 156.085 122.683 156.17C122.718 156.256 122.77 156.334 122.835 156.4C122.9 156.466 122.977 156.518 123.063 156.553C123.148 156.589 123.24 156.607 123.332 156.607H142.64C142.732 156.607 142.823 156.588 142.907 156.552C142.992 156.516 143.068 156.463 143.132 156.398C143.196 156.332 143.247 156.254 143.281 156.169C143.314 156.083 143.331 155.992 143.329 155.9L143.1 133.834ZM142.157 134.269C141.284 134.292 125.274 134.528 124.033 134.529V155.187H141.95C141.923 153.532 142.13 135.675 142.153 134.269H142.157Z" fill="#0052FF"/>
<path d="M129.465 50.6343C128.852 50.21 128.328 49.668 127.926 49.0399C127.523 48.4118 127.249 47.7101 127.12 46.9753C126.55 42.2123 132.437 40.0453 136.062 41.8693C139.633 43.6693 140.039 48.8023 136.662 50.6053C138.096 52.2354 139.002 54.2613 139.262 56.4163C139.276 56.5356 139.244 56.6559 139.172 56.7519C139.1 56.8479 138.993 56.9124 138.875 56.9317C138.756 56.9511 138.634 56.9239 138.535 56.8558C138.436 56.7877 138.367 56.684 138.343 56.5663C137.914 54.3421 136.738 52.3312 135.01 50.8663C134.915 50.7873 134.843 50.6835 134.802 50.5664C134.761 50.4492 134.753 50.3231 134.779 50.2019C134.805 50.0806 134.864 49.9688 134.949 49.8786C135.034 49.7884 135.143 49.7233 135.262 49.6903C138.44 48.8133 138.21 44.5253 135.446 43.1363C132.736 41.7743 128.146 43.2913 128.527 46.8003C128.683 48.2473 129.888 49.1833 130.964 50.1083C131.044 50.1746 131.107 50.2579 131.15 50.3521C131.193 50.4463 131.214 50.5489 131.212 50.6524C131.21 50.7558 131.184 50.8575 131.137 50.9497C131.09 51.042 131.023 51.1225 130.941 51.1853C129.025 52.5669 127.574 54.4982 126.78 56.7233C126.742 56.8276 126.666 56.9133 126.566 56.9628C126.467 57.0124 126.353 57.0219 126.247 56.9894C126.14 56.9569 126.051 56.885 125.996 56.7884C125.942 56.6918 125.926 56.578 125.953 56.4703C126.528 54.2234 127.749 52.1944 129.465 50.6343Z" fill="#0052FF"/>
<path d="M129.465 83.7343C128.852 83.31 128.328 82.768 127.926 82.1399C127.523 81.5118 127.249 80.81 127.12 80.0753C126.55 75.3123 132.437 73.1453 136.062 74.9693C139.633 76.7693 140.039 81.9023 136.662 83.7053C138.096 85.3354 139.002 87.3612 139.262 89.5163C139.276 89.6356 139.244 89.7558 139.172 89.8519C139.1 89.9479 138.993 90.0124 138.875 90.0317C138.756 90.0511 138.634 90.0239 138.535 89.9558C138.436 89.8877 138.367 89.784 138.343 89.6663C137.914 87.4421 136.738 85.4312 135.01 83.9663C134.915 83.8872 134.843 83.7835 134.802 83.6663C134.761 83.5492 134.753 83.4231 134.779 83.3019C134.805 83.1806 134.864 83.0688 134.949 82.9786C135.034 82.8884 135.143 82.8233 135.262 82.7903C138.44 81.9133 138.21 77.6253 135.446 76.2363C132.736 74.8733 128.146 76.3913 128.527 79.9003C128.683 81.3473 129.888 82.2833 130.964 83.2083C131.044 83.2746 131.107 83.3579 131.15 83.4521C131.193 83.5462 131.214 83.6489 131.212 83.7523C131.21 83.8558 131.184 83.9575 131.137 84.0497C131.09 84.142 131.023 84.2225 130.941 84.2853C129.025 85.6669 127.574 87.5982 126.78 89.8233C126.742 89.9276 126.666 90.0133 126.566 90.0628C126.467 90.1123 126.353 90.1218 126.247 90.0894C126.14 90.0569 126.051 89.985 125.996 89.8884C125.942 89.7918 125.926 89.6779 125.953 89.5703C126.528 87.3234 127.749 85.2944 129.465 83.7343Z" fill="#0052FF"/>
<path d="M129.061 116.834C128.447 116.41 127.924 115.868 127.522 115.24C127.119 114.612 126.845 113.91 126.716 113.175C126.146 108.412 132.034 106.245 135.658 108.069C139.229 109.869 139.635 115.002 136.258 116.805C137.691 118.435 138.598 120.461 138.858 122.616C138.872 122.736 138.84 122.856 138.768 122.952C138.695 123.048 138.589 123.112 138.47 123.132C138.352 123.151 138.23 123.124 138.131 123.056C138.032 122.988 137.963 122.884 137.939 122.766C137.51 120.542 136.334 118.531 134.606 117.066C134.51 116.987 134.438 116.883 134.398 116.766C134.357 116.649 134.349 116.523 134.376 116.402C134.402 116.28 134.461 116.168 134.546 116.078C134.631 115.988 134.739 115.923 134.859 115.89C138.036 115.013 137.806 110.725 135.042 109.336C132.332 107.973 127.742 109.491 128.123 113C128.279 114.447 129.484 115.383 130.56 116.308C130.639 116.374 130.703 116.458 130.746 116.552C130.789 116.646 130.81 116.748 130.808 116.852C130.805 116.955 130.78 117.057 130.733 117.149C130.686 117.241 130.619 117.322 130.537 117.384C128.621 118.766 127.17 120.698 126.377 122.923C126.341 123.031 126.265 123.12 126.165 123.172C126.064 123.224 125.947 123.235 125.839 123.202C125.731 123.169 125.64 123.095 125.586 122.995C125.531 122.896 125.518 122.779 125.549 122.67C126.124 120.424 127.345 118.395 129.061 116.834Z" fill="#0052FF"/>
<path d="M129.465 148.116C128.852 147.692 128.329 147.15 127.926 146.522C127.524 145.894 127.25 145.192 127.12 144.457C126.55 139.694 132.437 137.527 136.062 139.351C139.633 141.151 140.039 146.284 136.662 148.087C138.096 149.717 139.002 151.743 139.262 153.898C139.276 154.017 139.243 154.137 139.171 154.233C139.098 154.328 138.992 154.392 138.874 154.412C138.755 154.431 138.634 154.404 138.535 154.336C138.437 154.268 138.368 154.165 138.343 154.047C137.913 151.825 136.737 149.816 135.01 148.352C134.915 148.273 134.843 148.169 134.802 148.052C134.761 147.935 134.754 147.809 134.78 147.687C134.806 147.566 134.864 147.454 134.949 147.364C135.034 147.274 135.143 147.208 135.262 147.175C138.44 146.299 138.21 142.01 135.446 140.621C132.736 139.259 128.146 140.776 128.527 144.285C128.683 145.732 129.888 146.669 130.964 147.593C131.044 147.66 131.107 147.743 131.15 147.837C131.193 147.931 131.214 148.034 131.212 148.137C131.21 148.241 131.184 148.342 131.137 148.435C131.09 148.527 131.023 148.608 130.941 148.67C129.025 150.052 127.574 151.983 126.78 154.208C126.742 154.313 126.666 154.398 126.566 154.448C126.467 154.497 126.353 154.507 126.247 154.474C126.14 154.442 126.051 154.37 125.996 154.273C125.942 154.177 125.926 154.063 125.953 153.955C126.527 151.707 127.748 149.677 129.465 148.116Z" fill="#0052FF"/>
<path d="M83.24 41.4033C84.45 41.3323 87.02 41.2783 87.745 41.2553C99.595 40.8653 103.821 41.6703 111.513 40.7673C111.573 40.7643 111.633 40.7494 111.687 40.7235C111.742 40.6975 111.791 40.6611 111.832 40.6162C111.872 40.5713 111.904 40.5188 111.924 40.4618C111.945 40.4048 111.953 40.3443 111.95 40.2838C111.947 40.2234 111.933 40.1641 111.907 40.1094C111.881 40.0546 111.844 40.0056 111.799 39.9649C111.754 39.9243 111.702 39.8929 111.645 39.8726C111.588 39.8522 111.527 39.8433 111.467 39.8463C108.337 39.9673 93.215 39.4193 87.377 39.9383C85.9499 40.0744 84.5307 40.2833 83.125 40.5643C83.0137 40.5796 82.9131 40.6384 82.8452 40.7279C82.7773 40.8173 82.7477 40.9301 82.763 41.0413C82.7782 41.1526 82.837 41.2532 82.9265 41.3211C83.0159 41.389 83.1287 41.4186 83.24 41.4033Z" fill="#0052FF"/>
<path d="M83.4471 46.9323C85.1471 47.0043 85.3581 47.0723 87.4691 47.0513C101.125 46.9193 100.363 46.9073 103.582 46.6823C103.642 46.6824 103.702 46.6707 103.758 46.6477C103.814 46.6247 103.865 46.5909 103.907 46.5482C103.95 46.5056 103.984 46.4549 104.007 46.3992C104.03 46.3434 104.042 46.2837 104.042 46.2233C104.042 46.1009 103.994 45.9835 103.908 45.8966C103.821 45.8097 103.704 45.7604 103.582 45.7593C102.732 45.6933 101.882 45.6143 101.031 45.5663C98.3311 45.4163 88.1711 45.5023 85.0101 45.8723C84.4581 45.9343 83.9291 46.0133 83.4011 46.0873C83.2888 46.0942 83.1835 46.1437 83.1065 46.2256C83.0296 46.3076 82.9869 46.4159 82.9871 46.5283C82.9953 46.6426 83.0481 46.749 83.1342 46.8246C83.2203 46.9002 83.3327 46.9389 83.4471 46.9323Z" fill="#0052FF"/>
<path d="M92.8001 116.569C100.309 116.68 90.1161 116.547 106.454 116.629C108.044 116.638 108.472 116.577 109.879 116.487C109.941 116.491 110.003 116.483 110.062 116.462C110.121 116.441 110.175 116.409 110.221 116.367C110.266 116.325 110.303 116.274 110.329 116.218C110.355 116.161 110.369 116.1 110.371 116.038C110.372 115.976 110.361 115.914 110.338 115.856C110.315 115.798 110.281 115.746 110.237 115.701C110.193 115.657 110.141 115.622 110.084 115.599C110.026 115.575 109.964 115.563 109.902 115.564C108.91 115.458 107.902 115.316 106.821 115.264C103.031 115.071 99.2329 115.076 95.4431 115.279C94.5238 115.377 93.6107 115.526 92.7081 115.726C92.5963 115.739 92.4939 115.795 92.4235 115.882C92.3531 115.97 92.3204 116.082 92.3326 116.194C92.3448 116.306 92.4009 116.408 92.4886 116.478C92.5762 116.549 92.6883 116.582 92.8001 116.569Z" fill="#0052FF"/>
<path d="M93.4229 121.991C94.2187 122.044 95.017 122.046 95.813 121.997C104.613 121.455 102.848 121.638 105.306 121.266C105.368 121.267 105.43 121.256 105.487 121.232C105.545 121.208 105.597 121.174 105.641 121.129C105.685 121.085 105.719 121.033 105.742 120.975C105.765 120.917 105.776 120.855 105.774 120.793C105.773 120.731 105.759 120.669 105.733 120.613C105.707 120.556 105.67 120.505 105.624 120.463C105.579 120.421 105.525 120.389 105.466 120.369C105.407 120.348 105.345 120.339 105.283 120.343C104.683 120.287 104.083 120.204 103.49 120.185C100.38 120.159 97.2729 120.4 94.204 120.905C93.904 120.98 93.604 121.066 93.331 121.152C93.2742 121.157 93.2189 121.173 93.1684 121.199C93.1178 121.226 93.0731 121.262 93.0367 121.306C93.0003 121.35 92.973 121.4 92.9564 121.455C92.9398 121.509 92.9342 121.567 92.94 121.623C92.9589 121.734 93.0193 121.834 93.1089 121.903C93.1986 121.971 93.3108 122.003 93.4229 121.991Z" fill="#0052FF"/>
<path d="M91.4 145.393C97.849 145.34 93.385 145.193 103.169 145.105C104.704 145.092 104.949 145.027 106.111 144.951C106.23 144.952 106.345 144.907 106.432 144.825C106.519 144.743 106.571 144.631 106.577 144.511C106.582 144.392 106.542 144.275 106.464 144.185C106.386 144.095 106.276 144.038 106.157 144.027C105.24 143.908 104.418 143.779 103.467 143.737C100.185 143.606 96.8978 143.706 93.63 144.037C92.839 144.163 92.056 144.334 91.285 144.55C91.1742 144.567 91.0741 144.625 91.0055 144.714C90.9369 144.802 90.9052 144.914 90.917 145.025C90.9348 145.137 90.9949 145.237 91.0848 145.306C91.1747 145.374 91.2876 145.406 91.4 145.393Z" fill="#0052FF"/>
<path d="M90.388 151.472C90.611 151.479 91.342 151.53 91.788 151.506C92.707 151.458 93.603 151.347 94.523 151.294C96.0436 151.314 97.5618 151.168 99.051 150.859C99.1734 150.853 99.2883 150.799 99.3706 150.708C99.4528 150.617 99.4956 150.497 99.4895 150.375C99.4834 150.252 99.4289 150.137 99.338 150.055C99.2472 149.973 99.1274 149.93 99.005 149.936C98.4879 149.849 97.9659 149.793 97.442 149.769C95.4886 149.758 93.5371 149.893 91.604 150.174C91.1319 150.29 90.6706 150.446 90.225 150.64C90.1166 150.664 90.0217 150.729 89.9608 150.822C89.8999 150.914 89.8777 151.027 89.899 151.136C89.9204 151.245 89.9835 151.341 90.0749 151.404C90.1663 151.467 90.2787 151.491 90.388 151.472Z" fill="#0052FF"/>
<path d="M150.428 36.4103C150.11 24.7853 147.092 20.4693 134.844 19.9923C130.112 19.8123 91.9341 20.4873 83.5841 20.7293C76.9361 20.9343 67.4361 20.4143 64.9891 27.6523C64.9624 27.7552 64.9749 27.8644 65.0243 27.9586C65.0737 28.0527 65.1563 28.1252 65.2561 28.1617C65.356 28.1983 65.4659 28.1964 65.5644 28.1564C65.6629 28.1164 65.743 28.0411 65.7891 27.9453C68.4841 21.1643 77.1761 21.9333 84.5261 21.8223C85.2731 24.0613 86.7811 26.7703 88.9131 27.7633C91.9611 29.1823 95.7481 28.4853 98.7981 28.5263C103.478 28.5723 107.939 28.2993 112.566 28.0803C114.812 27.9723 117.466 27.9983 119.232 26.5503C120.84 25.2503 121.332 23.2863 121.925 21.4333C122.843 21.4243 133.874 21.3493 134.794 21.3863C146.161 21.8373 148.767 25.4723 148.994 36.4453C149.143 41.7883 148.949 152.667 148.304 158.345C147.891 161.582 148.029 165.9 146.649 168.975C146.247 170.008 145.543 170.894 144.628 171.519C143.713 172.144 142.631 172.477 141.523 172.475C121.702 173.623 97.7461 174.675 78.0821 173.655C77.9581 173.65 77.8367 173.691 77.7426 173.772C77.6485 173.853 77.589 173.967 77.5761 174.09C77.5726 174.212 77.616 174.33 77.6973 174.421C77.7787 174.512 77.8917 174.568 78.0131 174.577C98.5891 175.85 121.206 174.977 141.613 173.854C142.977 173.85 144.308 173.437 145.435 172.669C146.562 171.901 147.432 170.813 147.935 169.545C149.36 166.354 149.268 161.878 149.681 158.517C150.374 153.038 150.574 41.6373 150.428 36.4103Z" fill="#292F75"/>
<path d="M59.541 131.284C51.563 130.652 47.585 130.984 40.141 131.315C36.499 131.476 33.076 130.393 29.452 133.251C26.646 135.473 27.135 138.44 27.499 141.951C27.5924 143.434 27.9423 144.889 28.533 146.251C29.678 148.601 31.992 149.644 34.578 149.822C36.5201 149.836 38.4616 149.745 40.394 149.551C51.072 149.131 52.148 149.235 60.254 148.46C60.3759 148.446 60.4881 148.387 60.5687 148.295C60.6493 148.202 60.6926 148.083 60.69 147.96C60.6776 147.839 60.6185 147.727 60.5252 147.649C60.4319 147.57 60.3117 147.531 60.19 147.539C55.941 147.859 46.63 147.939 40.353 148.152C36.981 148.269 31.753 149.538 29.802 145.62C29.2872 144.412 28.9899 143.122 28.924 141.81C28.593 138.683 28.041 135.973 30.602 134.166C33.721 131.921 36.573 132.894 40.21 132.716C47.782 132.346 54.795 131.856 59.495 132.131C59.6073 132.137 59.7175 132.099 59.8012 132.024C59.885 131.948 59.9354 131.843 59.9415 131.731C59.9476 131.618 59.9089 131.508 59.8338 131.425C59.7586 131.341 59.6534 131.29 59.541 131.284Z" fill="#292F75"/>
<path d="M44.3699 137.424C44.9179 137.386 45.9229 137.388 46.3929 137.367C48.3979 137.272 53.4769 136.867 55.4729 136.644C56.5029 136.531 57.4549 136.324 58.0239 136.215C58.1434 136.203 58.2532 136.144 58.3302 136.052C58.4072 135.96 58.4452 135.841 58.4363 135.721C58.4273 135.602 58.372 135.49 58.2821 135.41C58.1923 135.331 58.0749 135.289 57.9549 135.294C57.1889 135.273 56.4659 135.221 55.3549 135.276C52.8459 135.402 46.6969 135.976 46.2549 136.046C45.5574 136.166 44.8724 136.35 44.2089 136.596C44.153 136.605 44.0994 136.625 44.0514 136.655C44.0034 136.685 43.9619 136.725 43.9295 136.771C43.897 136.818 43.8742 136.87 43.8625 136.925C43.8507 136.981 43.8502 137.038 43.861 137.094C43.8718 137.149 43.8937 137.202 43.9254 137.249C43.957 137.296 43.9978 137.336 44.0453 137.367C44.0928 137.398 44.146 137.419 44.2018 137.429C44.2576 137.438 44.3147 137.437 44.3699 137.424Z" fill="#0052FF"/>
<path d="M43.129 140.957C43.272 140.967 43.905 141.048 44.255 141.04C44.991 141.023 45.727 140.94 46.462 140.917C47.6918 140.989 48.9253 140.867 50.117 140.554C50.2355 140.543 50.3453 140.487 50.4233 140.397C50.5013 140.307 50.5415 140.19 50.5356 140.071C50.5296 139.952 50.478 139.84 50.3914 139.758C50.3049 139.677 50.19 139.631 50.071 139.632C49.654 139.545 49.2317 139.485 48.807 139.453C47.2318 139.412 45.6558 139.497 44.094 139.705C43.7111 139.799 43.3416 139.94 42.994 140.125C42.8882 140.148 42.7953 140.211 42.7343 140.3C42.6733 140.389 42.649 140.499 42.6663 140.605C42.6837 140.712 42.7413 140.808 42.8274 140.874C42.9135 140.939 43.0214 140.969 43.129 140.957Z" fill="#0052FF"/>
<path d="M43.4051 144.967C43.8131 144.957 44.8351 145.017 45.2441 145.02C48.0281 145.04 53.4741 144.52 53.7951 144.478C54.2951 144.413 54.7831 144.327 55.2891 144.272C55.3494 144.273 55.4092 144.261 55.465 144.238C55.5208 144.215 55.5715 144.182 55.6142 144.139C55.6569 144.096 55.6907 144.046 55.7137 143.99C55.7367 143.934 55.7484 143.875 55.7481 143.814C55.7479 143.692 55.6996 143.575 55.6138 143.488C55.528 143.4 55.4114 143.35 55.2891 143.348C52.7831 143.015 52.7501 143.199 48.0251 143.53C46.4097 143.475 44.7958 143.678 43.2441 144.13C43.1894 144.141 43.1373 144.162 43.0908 144.193C43.0444 144.223 43.0044 144.263 42.9732 144.309C42.942 144.355 42.9202 144.407 42.909 144.462C42.8978 144.516 42.8975 144.573 42.9081 144.627C42.9187 144.682 42.9399 144.734 42.9706 144.781C43.0013 144.827 43.0409 144.867 43.087 144.898C43.1332 144.929 43.185 144.951 43.2396 144.962C43.2942 144.974 43.3504 144.974 43.4051 144.963V144.967Z" fill="#0052FF"/>
<path d="M37.176 135.829C33.089 135.007 32.176 140.544 35.934 140.823C38.6 141.018 40.233 136.432 37.176 135.829Z" fill="#0052FF"/>
<path d="M37.2911 135.266C38.9501 135.466 39.9701 136.9 39.3361 138.91C39.2078 139.448 38.9503 139.946 38.5861 140.362C38.2218 140.778 37.7617 141.098 37.2455 141.296C36.7294 141.494 36.1728 141.563 35.6241 141.497C35.0753 141.431 34.5508 141.233 34.0961 140.918C33.7501 140.658 33.4618 140.329 33.2493 139.952C33.0368 139.575 32.9048 139.157 32.8616 138.727C32.8184 138.296 32.8649 137.861 32.9982 137.449C33.1315 137.037 33.3487 136.657 33.6361 136.333C34.0957 135.847 34.6765 135.492 35.3189 135.304C35.9612 135.117 36.642 135.104 37.2911 135.266ZM34.6911 137.132C33.7231 138.571 34.3811 139.998 36.0011 140.112C37.5621 140.232 38.6011 137.932 37.9091 136.965C37.709 136.725 37.4557 136.535 37.1693 136.41C36.883 136.285 36.5714 136.228 36.2593 136.244C35.9472 136.261 35.6432 136.349 35.3713 136.503C35.0994 136.657 34.8672 136.873 34.6931 137.132H34.6911Z" fill="#292F75"/>
<path d="M153.585 74.8773C153.585 74.4373 155.111 72.6433 155.861 71.1973C156.281 70.4836 156.489 69.665 156.461 68.8373C156.461 67.4523 156.461 70.4813 156.207 60.3463C156.133 57.3603 156.781 54.9723 159.472 53.7363C161.592 52.7623 164.481 52.7733 166.804 52.6903C172.694 52.4833 185.593 51.3803 190.779 52.0033C191.407 51.9996 192.024 52.1648 192.566 52.4814C193.107 52.7981 193.554 53.2547 193.859 53.8033C194.33 54.9499 194.633 56.1583 194.759 57.3913C195.184 59.5366 195.43 61.7134 195.495 63.8993C195.545 65.8833 195.251 69.4443 194.3 70.9583C193.134 72.8123 190.8 73.0013 188.806 73.2243C187.542 73.3623 179.106 73.6303 171.635 73.7293C158.518 73.9033 160.022 73.4293 158.326 73.9833C156.807 74.4833 155.332 75.4073 153.775 75.7833C153.714 75.8014 153.649 75.8066 153.586 75.7985C153.523 75.7904 153.462 75.7693 153.407 75.7364C153.352 75.7035 153.305 75.6596 153.268 75.6075C153.231 75.5553 153.205 75.4961 153.193 75.4335C153.18 75.371 153.18 75.3064 153.194 75.244C153.207 75.1816 153.233 75.1226 153.271 75.0709C153.308 75.0191 153.356 74.9758 153.411 74.9435C153.466 74.9112 153.528 74.8907 153.591 74.8833L153.585 74.8773ZM154.803 74.4473C156.576 73.6783 158.217 72.5143 160.228 72.5713C163.678 72.6713 187.689 71.9243 188.639 71.8193C189.839 71.7762 191.022 71.5199 192.133 71.0623C193.333 70.4513 193.504 69.3623 193.765 68.0433C194.241 64.5827 194.101 61.0651 193.351 57.6533C193.109 56.4143 193.051 54.2853 191.88 53.7483C190.752 53.392 189.567 53.2489 188.386 53.3263C186.041 53.2383 183.697 53.2113 181.352 53.3333C164.871 54.1913 162.259 53.9943 160.021 54.9903C157.895 55.9363 157.493 57.9823 157.493 60.3293C157.493 70.6463 157.554 67.8833 157.539 68.8473C157.5 71.1823 156.033 72.6783 154.8 74.4473H154.803Z" fill="#292F75"/>
<path d="M168.932 61.7683C168.162 61.7683 167.468 61.7943 166.817 61.8313L166.059 59.9433V59.9313C166.035 59.8398 165.981 59.7588 165.906 59.701C165.831 59.6432 165.74 59.6119 165.645 59.6119C165.55 59.6119 165.458 59.6432 165.383 59.701C165.309 59.7588 165.255 59.8398 165.231 59.9313H165.208L164.473 61.8233C163.835 61.7943 163.245 61.7693 162.358 61.7683C162.214 61.771 162.074 61.8189 161.958 61.9054C161.843 61.9918 161.757 62.1124 161.714 62.25C161.671 62.3877 161.672 62.5355 161.717 62.6724C161.763 62.8094 161.85 62.9286 161.967 63.0133L163.576 64.1933L162.932 66.0933C162.891 66.2359 162.895 66.3879 162.943 66.5282C162.991 66.6686 163.082 66.7905 163.203 66.8773C163.323 66.9642 163.467 67.0116 163.616 67.0132C163.764 67.0149 163.91 66.9705 164.032 66.8863L165.641 65.7213L167.25 66.8873C167.372 66.9712 167.518 67.0152 167.666 67.0133C167.815 67.0114 167.959 66.9637 168.08 66.8767C168.2 66.7898 168.291 66.6677 168.339 66.5273C168.387 66.3869 168.391 66.235 168.35 66.0923L167.729 64.1923L169.315 63.0113C169.431 62.9271 169.518 62.8087 169.563 62.6727C169.609 62.5366 169.611 62.3898 169.568 62.2527C169.526 62.1156 169.442 61.9952 169.328 61.9084C169.214 61.8215 169.075 61.7725 168.932 61.7683Z" fill="#0052FF"/>
<path d="M179.506 61.2103C178.769 61.2103 178.063 61.2353 177.391 61.2733L176.633 59.3853V59.3733C176.609 59.2818 176.555 59.2008 176.48 59.143C176.406 59.0852 176.314 59.0539 176.219 59.0539C176.124 59.0539 176.032 59.0852 175.958 59.143C175.883 59.2008 175.829 59.2818 175.805 59.3733H175.782L175.046 61.2653C174.412 61.2363 173.82 61.2113 172.931 61.2103C172.787 61.2126 172.646 61.2603 172.531 61.3468C172.415 61.4332 172.329 61.554 172.286 61.6919C172.243 61.8298 172.244 61.9778 172.29 62.1148C172.336 62.2519 172.424 62.3711 172.541 62.4553L174.15 63.6353L173.506 65.5353C173.465 65.678 173.469 65.8299 173.517 65.9702C173.566 66.1106 173.656 66.2325 173.777 66.3194C173.897 66.4062 174.041 66.4537 174.19 66.4553C174.338 66.4569 174.484 66.4125 174.606 66.3283L176.215 65.1633L177.824 66.3293C177.947 66.4147 178.093 66.4597 178.243 66.4581C178.392 66.4565 178.537 66.4084 178.658 66.3204C178.779 66.2324 178.87 66.109 178.917 65.9673C178.965 65.8255 178.967 65.6724 178.924 65.5293L178.303 63.6293L179.889 62.4483C180.003 62.3635 180.088 62.2454 180.132 62.1103C180.177 61.9751 180.178 61.8296 180.136 61.6938C180.094 61.5579 180.011 61.4385 179.898 61.3519C179.785 61.2653 179.648 61.2158 179.506 61.2103Z" fill="#0052FF"/>
<path d="M189.5 61.2103C188.761 61.2103 188.052 61.2353 187.385 61.2733L186.626 59.3853V59.3733C186.602 59.2818 186.548 59.2008 186.474 59.143C186.399 59.0852 186.307 59.0539 186.212 59.0539C186.117 59.0539 186.026 59.0852 185.951 59.143C185.876 59.2008 185.822 59.2818 185.798 59.3733H185.775L185.04 61.2653C184.406 61.2363 183.813 61.2113 182.925 61.2103C182.781 61.213 182.641 61.2609 182.526 61.3474C182.41 61.4338 182.325 61.5544 182.281 61.6921C182.238 61.8297 182.239 61.9775 182.285 62.1144C182.33 62.2514 182.417 62.3707 182.534 62.4553L184.144 63.6353L183.5 65.5353C183.458 65.6781 183.462 65.8303 183.51 65.971C183.558 66.1117 183.649 66.234 183.77 66.321C183.89 66.408 184.035 66.4554 184.184 66.4567C184.332 66.458 184.478 66.4132 184.6 66.3283L186.209 65.1633L187.818 66.3293C187.941 66.414 188.087 66.4585 188.236 66.4566C188.386 66.4547 188.531 66.4065 188.651 66.3188C188.772 66.231 188.862 66.1079 188.91 65.9665C188.958 65.8251 188.961 65.6723 188.918 65.5293L188.297 63.6293L189.883 62.4483C189.997 62.3635 190.082 62.2454 190.126 62.1103C190.171 61.9751 190.172 61.8296 190.13 61.6938C190.088 61.5579 190.005 61.4385 189.892 61.3519C189.779 61.2653 189.642 61.2158 189.5 61.2103Z" fill="#0052FF"/>
<path d="M163.085 38.8023C164.203 39.3519 165.258 40.0194 166.234 40.7933C166.341 40.8534 166.42 40.953 166.455 41.0708C166.489 41.1885 166.476 41.3151 166.418 41.4233C166.354 41.5301 166.251 41.608 166.131 41.6405C166.011 41.6729 165.883 41.6575 165.774 41.5973C164.313 41.0988 162.916 40.4292 161.613 39.6023C161.524 39.5486 161.448 39.4764 161.389 39.3906C161.331 39.3048 161.291 39.2073 161.274 39.1049C161.257 39.0025 161.261 38.8976 161.288 38.7972C161.315 38.6969 161.363 38.6034 161.429 38.5233C164.189 35.3893 163.516 35.8063 165.337 34.3133C165.373 34.2707 165.418 34.2357 165.467 34.2104C165.517 34.185 165.572 34.1697 165.627 34.1654C165.683 34.1611 165.739 34.168 165.792 34.1854C165.845 34.2029 165.895 34.2308 165.937 34.2673C166.021 34.3416 166.073 34.4459 166.082 34.558C166.091 34.67 166.055 34.7811 165.983 34.8673C165.703 35.3746 165.396 35.8663 165.063 36.3403C164.717 36.8373 163.615 38.1473 163.085 38.8023Z" fill="#0052FF"/>
<path d="M171.36 40.6183C172.866 39.1613 171.76 40.3783 174.279 37.2373C175.22 36.2231 176.037 35.1013 176.715 33.8953C176.754 33.8486 176.784 33.7945 176.803 33.7362C176.821 33.678 176.828 33.6166 176.823 33.5557C176.818 33.4948 176.8 33.4355 176.772 33.3812C176.744 33.3269 176.706 33.2787 176.659 33.2393C176.612 33.1999 176.558 33.1701 176.5 33.1516C176.442 33.1331 176.38 33.1262 176.319 33.1314C176.258 33.1366 176.199 33.1538 176.145 33.1819C176.091 33.21 176.042 33.2486 176.003 33.2953C174.654 34.406 173.477 35.7098 172.509 37.1643C171.746 38.0512 171.126 39.0511 170.67 40.1283C170.605 40.2188 170.578 40.3314 170.595 40.4417C170.612 40.552 170.672 40.651 170.762 40.7173C170.855 40.7829 170.969 40.8092 171.081 40.7907C171.193 40.7722 171.293 40.7102 171.36 40.6183Z" fill="#0052FF"/>
<path d="M184.048 36.6423C181.41 35.1493 180.856 34.6903 180.348 34.3903C180.242 34.3505 180.156 34.2702 180.109 34.1671C180.062 34.0639 180.058 33.9464 180.098 33.8403C180.138 33.7342 180.218 33.6483 180.321 33.6014C180.424 33.5545 180.542 33.5505 180.648 33.5903C182.689 33.9753 182.954 34.4593 185.659 35.9143C185.763 35.9719 185.85 36.0542 185.914 36.154C185.978 36.2538 186.017 36.3679 186.026 36.4861C186.035 36.6043 186.015 36.7229 185.967 36.8313C185.919 36.9397 185.845 37.0346 185.751 37.1073C182.183 39.8733 183.514 39.0203 181.476 40.2243C181.375 40.2986 181.249 40.3311 181.125 40.3148C181.001 40.2986 180.888 40.235 180.809 40.1373C180.738 40.0383 180.709 39.9159 180.726 39.7954C180.743 39.675 180.806 39.5658 180.901 39.4903C181.857 38.4431 182.911 37.4895 184.048 36.6423Z" fill="#0052FF"/>
<path d="M160.211 46.0303C160.211 46.0303 157.86 46.6183 156.579 43.0963C155.729 40.1406 155.572 37.0286 156.12 34.0023C156.264 33.014 156.75 32.1075 157.494 31.4405C158.237 30.7735 159.191 30.3881 160.189 30.3513C162.051 30.1353 164.119 29.6973 166.096 29.3863C168.217 29.0543 168.471 29.0333 180.255 28.4623C182.715 28.3433 185.543 28.0873 187.887 28.9623C191.971 30.4943 193.602 40.1973 189.105 43.3313C186.353 45.2443 182.398 44.9733 179.359 45.1793C172.55 45.6453 160.211 45.8443 160.211 46.0303ZM160.074 45.1183L160.027 45.1253C160.027 45.1253 158.444 45.3363 157.591 42.7423C156.98 40.0938 156.887 37.3523 157.315 34.6683C157.661 32.9153 158.452 31.9383 160.326 31.7213C162.234 31.5053 164.326 31.0773 166.326 30.7703C168.411 30.4473 168.691 30.4343 180.326 29.8823C182.548 29.7773 185.307 29.5233 187.383 30.3043C190.383 31.4153 191.883 39.6443 188.283 42.1743C185.911 43.8403 182.148 43.5923 179.273 43.8033C173.142 44.2543 167.073 44.3843 160.08 45.1563L160.074 45.1183Z" fill="#292F75"/>
<path d="M27.3841 30.6193C26.0875 26.9945 24.4816 23.4879 22.5841 20.1383C22.5501 20.0778 22.504 20.0251 22.4486 19.9834C22.3931 19.9418 22.3296 19.9121 22.2621 19.8963C22.2237 19.8231 22.1651 19.7625 22.0931 19.7218C22.0212 19.6811 21.9391 19.662 21.8566 19.6667C21.7741 19.6715 21.6947 19.6999 21.6279 19.7486C21.5612 19.7973 21.5098 19.8642 21.4801 19.9413L20.4421 22.5103C19.1275 21.2698 17.7378 20.1113 16.2811 19.0413C16.1433 18.9518 15.9784 18.9137 15.8153 18.9335C15.6522 18.9534 15.5013 19.03 15.389 19.15C15.2767 19.2699 15.2102 19.4255 15.201 19.5896C15.1919 19.7536 15.2408 19.9156 15.3391 20.0473C17.7501 23.0653 19.0391 24.9193 21.7291 28.8583C21.816 28.9826 21.9399 29.0764 22.0833 29.1261C22.2266 29.1758 22.3819 29.179 22.5272 29.1352C22.6724 29.0915 22.8001 29.0029 22.892 28.8822C22.984 28.7616 23.0354 28.6149 23.0391 28.4633C23.0633 27.9123 23.0556 27.3604 23.0161 26.8103C23.7251 27.8103 25.2861 30.1103 26.1651 31.2613C26.2661 31.3906 26.4094 31.4802 26.5698 31.5147C26.7302 31.5491 26.8977 31.526 27.0428 31.4496C27.188 31.3731 27.3017 31.2481 27.3641 31.0963C27.4265 30.9446 27.4336 30.7757 27.3841 30.6193Z" fill="#0052FF"/>
<path d="M24.694 34.4453C22.671 34.6743 20.557 34.6383 18.511 34.8933C17.095 35.0713 17.421 35.1723 17.523 34.8313C17.823 34.2683 18.061 33.6903 18.323 33.1233C18.3862 32.9905 18.4054 32.841 18.3779 32.6966C18.3504 32.5521 18.2777 32.4201 18.1701 32.3198C18.0626 32.2195 17.9259 32.1561 17.7798 32.1388C17.6338 32.1214 17.486 32.151 17.358 32.2233C13.3782 34.3952 9.5128 36.7704 5.77698 39.3393C5.70358 39.3804 5.64446 39.4429 5.60748 39.5185C5.57049 39.5941 5.55742 39.6791 5.56998 39.7623C5.52125 39.841 5.497 39.9324 5.5003 40.0248C5.5036 40.1173 5.53431 40.2068 5.58853 40.2818C5.64274 40.3568 5.71803 40.414 5.80481 40.4461C5.8916 40.4783 5.98599 40.4839 6.07598 40.4623C8.09798 39.9993 10.052 39.2313 12.052 38.6413L11.592 39.3153C11.5158 39.4379 11.4799 39.5812 11.4891 39.7252C11.4983 39.8693 11.5523 40.0068 11.6435 40.1187C11.7347 40.2306 11.8585 40.3112 11.9977 40.3493C12.1369 40.3874 12.2845 40.3811 12.42 40.3313C16.713 38.8103 20.891 37.6163 25.062 35.8103C25.2171 35.7404 25.3423 35.6176 25.4151 35.4638C25.4879 35.31 25.5035 35.1353 25.4592 34.9711C25.4149 34.8068 25.3136 34.6637 25.1734 34.5673C25.0332 34.471 24.8632 34.4277 24.694 34.4453Z" fill="#0052FF"/>
<path d="M27.476 44.5513C26.2731 45.3007 25.1212 46.1292 24.028 47.0313C23.9519 46.6346 23.8982 46.234 23.867 45.8313C23.8505 45.6915 23.7927 45.5599 23.701 45.4531C23.6094 45.3463 23.488 45.2693 23.3523 45.2319C23.2167 45.1944 23.073 45.1982 22.9395 45.2428C22.806 45.2874 22.6889 45.3708 22.603 45.4823C21.453 47.0733 19.503 49.2603 17.063 52.9363C17.0296 52.9839 17.0063 53.0378 16.9944 53.0947C16.9826 53.1516 16.9824 53.2103 16.994 53.2673C16.9413 53.3565 16.92 53.4609 16.9338 53.5636C16.9475 53.6663 16.9953 53.7615 17.0697 53.8337C17.144 53.9059 17.2404 53.9511 17.3435 53.9619C17.4466 53.9727 17.5503 53.9485 17.638 53.8933C19.0156 53.0924 20.3094 52.1554 21.5 51.0963C21.566 51.4963 21.577 51.9103 22.029 52.0673C22.1516 52.107 22.2828 52.1124 22.4083 52.083C22.5338 52.0536 22.6488 51.9904 22.741 51.9003C25.208 49.4393 26.194 48.0483 28.373 45.6343C28.4884 45.5078 28.5542 45.3439 28.5583 45.1727C28.5625 45.0015 28.5046 44.8347 28.3954 44.7028C28.2861 44.5709 28.1329 44.483 27.964 44.4551C27.7951 44.4273 27.6218 44.4614 27.476 44.5513Z" fill="#0052FF"/>
<path d="M160.312 108.429C160.326 108.362 160.356 108.299 160.4 108.247C160.445 108.195 160.501 108.154 160.565 108.129C162.379 107.121 164.115 108.223 164.542 110.201C165.542 114.832 159.049 116.325 158.197 111.916C158.095 111.548 158.069 111.163 158.122 110.785C158.174 110.406 158.303 110.042 158.501 109.716C158.699 109.389 158.962 109.107 159.274 108.885C159.585 108.664 159.938 108.509 160.312 108.429ZM161.484 108.86C161.332 109.441 160.505 108.965 159.784 110.118C159.517 110.575 159.434 111.117 159.554 111.633C160.1 114.127 163.746 113.285 163.164 110.487C162.976 109.61 162.38 108.815 161.484 108.86Z" fill="#292F75"/>
<path d="M152.635 112.057C153.049 112.057 153.462 112.057 153.899 112.038C154.736 112.009 156.91 112.061 156.91 111.224C156.862 110.687 155.884 110.604 155.347 110.591C154.497 110.57 153.669 110.605 152.819 110.646C150.122 110.784 150.365 112.031 152.635 112.057Z" fill="#292F75"/>
<path d="M165.783 111.319C167.044 111.202 168.238 110.699 169.203 109.881C170.169 109.062 170.86 107.967 171.183 106.742C172.71 101.65 171.304 90.9423 170.931 85.7073C170.877 82.6074 170.631 79.5139 170.195 76.4443C170.177 76.3224 170.112 76.2126 170.013 76.1389C169.915 76.0652 169.791 76.0337 169.669 76.0513C169.547 76.0689 169.437 76.1343 169.364 76.2329C169.29 76.3316 169.258 76.4554 169.276 76.5773C169.556 79.3113 169.324 82.7183 169.551 85.8083C169.978 91.6083 170.573 96.6593 170.425 101.584C170.298 105.825 169.796 109.591 165.625 110.484C165.57 110.495 165.518 110.516 165.471 110.546C165.425 110.577 165.384 110.616 165.353 110.662C165.321 110.709 165.299 110.76 165.288 110.815C165.277 110.87 165.276 110.926 165.286 110.981C165.297 111.036 165.318 111.088 165.348 111.135C165.379 111.181 165.418 111.221 165.465 111.253C165.511 111.284 165.563 111.306 165.617 111.318C165.672 111.329 165.728 111.33 165.783 111.319Z" fill="#292F75"/>
<path d="M49.588 165.462C50.0382 166.03 50.3134 166.716 50.3799 167.437C50.4464 168.159 50.3013 168.884 49.9624 169.524C49.6235 170.164 49.1054 170.691 48.4715 171.042C47.8377 171.392 47.1154 171.551 46.393 171.497C42.993 171.508 42.082 167.814 43.451 165.667C43.7874 165.172 44.2359 164.764 44.7601 164.475C45.2843 164.186 45.8693 164.025 46.4674 164.005C47.0656 163.985 47.6601 164.106 48.2023 164.36C48.7446 164.613 49.2194 164.991 49.588 165.462ZM44.255 167.786C44.223 171.06 48.968 170.638 48.968 167.748C48.9523 167.08 48.6996 166.439 48.255 165.94C46.228 163.677 44.276 165.71 44.255 167.786Z" fill="#292F75"/>
<path d="M45.5659 160.697C45.7659 161.844 45.8409 162.317 46.3009 162.297C46.7909 162.274 46.7879 161.771 46.8529 160.666C46.8529 159.366 46.6929 157.925 46.6229 156.912C46.4769 154.812 46.5339 152.079 45.8869 152.033C44.4939 151.932 45.3449 159.459 45.5659 160.697Z" fill="#292F75"/>
<path d="M56.4151 167.449C57.8891 167.301 61.1151 167.211 61.0351 166.324C60.9861 165.781 59.6041 165.797 59.0591 165.816C57.2301 165.884 55.4089 166.089 53.6111 166.432C53.1031 166.579 51.8941 166.962 52.0481 167.465C52.1871 168.154 54.0741 167.676 56.4151 167.449Z" fill="#292F75"/>
<path d="M57.932 51.9233C57.9332 52.952 57.5848 53.9506 56.944 54.7553C56.8659 54.8448 56.8253 54.9609 56.8305 55.0795C56.8358 55.1982 56.8865 55.3102 56.9722 55.3924C57.0579 55.4747 57.172 55.5207 57.2907 55.5211C57.4095 55.5214 57.5238 55.476 57.61 55.3943C58.1117 54.9799 58.4874 54.4335 58.6947 53.8167C58.902 53.2 58.9326 52.5375 58.783 51.9043C58.618 51.2863 57.952 51.4243 57.932 51.9233Z" fill="#292F75"/>
<path d="M32.6251 24.1493C33.0601 22.8433 34.0701 20.6133 35.3831 20.1973C35.9341 20.0223 36.4601 20.2973 36.9921 21.1153C38.0551 22.7453 38.3571 25.1683 38.5091 27.1433C39.0871 34.6503 39.2761 42.1323 37.1531 49.2503C36.7441 50.6223 35.8871 53.0873 34.8531 54.0823C34.7014 54.2588 34.5016 54.3873 34.2781 54.4523C32.3401 54.7933 31.5541 53.5113 31.0151 51.6183C30.9833 51.4989 30.9053 51.3971 30.7984 51.3352C30.6915 51.2733 30.5644 51.2565 30.4451 51.2883C30.3257 51.3201 30.2239 51.398 30.162 51.5049C30.1002 51.6118 30.0833 51.7389 30.1151 51.8583C30.7561 54.3783 31.8151 56.0313 34.4591 55.6973C38.0721 55.2403 39.8301 44.5143 40.1371 40.6543C40.4115 36.1148 40.3346 31.5609 39.9071 27.0333C39.1911 17.6713 34.7351 17.2623 32.7581 21.3393C32.3344 22.1657 32.0178 23.0428 31.8161 23.9493C31.7994 24.0025 31.7941 24.0587 31.8004 24.1141C31.8068 24.1696 31.8246 24.2231 31.8529 24.2712C31.8812 24.3194 31.9192 24.361 31.9645 24.3936C32.0098 24.4262 32.0615 24.4489 32.1161 24.4603C32.17 24.4747 32.2262 24.478 32.2814 24.47C32.3366 24.462 32.3896 24.4429 32.4372 24.4138C32.4848 24.3847 32.526 24.3463 32.5583 24.3008C32.5906 24.2553 32.6133 24.2038 32.6251 24.1493Z" fill="#292F75"/>
<path d="M30.188 39.7213C29.424 38.0753 29.476 35.2483 31.014 34.4833C31.3848 35.4733 31.5571 36.5267 31.521 37.5833C31.321 38.9973 31.121 39.1923 31.498 39.4203C32.013 39.7293 33.213 38.6203 32.923 36.2423C32.8467 35.5278 32.6349 34.8345 32.299 34.1993C33.839 34.1783 36.21 34.9163 37.567 33.0613C37.6421 32.9779 37.6816 32.8685 37.6771 32.7564C37.6726 32.6443 37.6245 32.5384 37.543 32.4613C37.5012 32.424 37.4525 32.3954 37.3995 32.3772C37.3465 32.359 37.2905 32.3515 37.2346 32.3552C37.1787 32.359 37.1242 32.3738 37.0741 32.3989C37.024 32.424 36.9795 32.4588 36.943 32.5013C36.066 33.3593 34.83 33.0653 33.633 32.9013C31.86 32.6583 30.2 32.7963 29.151 34.2663C28.6922 35.0483 28.4038 35.9185 28.3047 36.8198C28.2056 37.7211 28.298 38.6332 28.576 39.4963C29.931 43.9813 34.937 41.2843 36.876 42.9093C36.9649 42.9912 37.0822 43.0351 37.203 43.0317C37.3238 43.0283 37.4384 42.9778 37.5225 42.891C37.6065 42.8042 37.6533 42.688 37.6529 42.5671C37.6524 42.4463 37.6047 42.3304 37.52 42.2443C35.418 39.9683 31.3 41.9173 30.188 39.7213Z" fill="#292F75"/>
<path d="M29.2221 31.9943C29.6504 29.725 30.1955 27.4794 30.8551 25.2663C32.1551 21.1503 34.7631 15.8533 38.5781 17.9133C41.3171 19.3953 43.2071 22.6393 45.6781 24.6463C49.3817 27.6376 53.6252 29.8901 58.1781 31.2813C58.2356 31.3058 58.2974 31.3184 58.3599 31.3183C58.4224 31.3182 58.4842 31.3055 58.5416 31.2808C58.5991 31.2562 58.6509 31.2201 58.694 31.1749C58.737 31.1296 58.7705 31.0761 58.7923 31.0175C58.8141 30.9589 58.8238 30.8966 58.8208 30.8341C58.8178 30.7717 58.8022 30.7106 58.7748 30.6544C58.7475 30.5982 58.7091 30.5481 58.6619 30.5072C58.6146 30.4662 58.5596 30.4353 58.5001 30.4163C54.2196 28.7028 50.2031 26.3922 46.5701 23.5533C44.0701 21.4993 42.2341 18.2533 39.2601 16.6583C34.4511 14.0783 31.0371 19.6293 29.5601 24.8893C28.9809 27.1768 28.5929 29.5085 28.4001 31.8603C28.3899 31.9152 28.3908 31.9715 28.4027 32.0261C28.4146 32.0806 28.4373 32.1322 28.4695 32.1779C28.5016 32.2235 28.5425 32.2623 28.5899 32.2919C28.6372 32.3215 28.6899 32.3413 28.7451 32.3502C28.8002 32.3592 28.8565 32.357 28.9107 32.3439C28.965 32.3307 29.0161 32.3069 29.061 32.2737C29.1059 32.2405 29.1437 32.1987 29.1722 32.1508C29.2008 32.1028 29.2194 32.0496 29.2271 31.9943H29.2221Z" fill="#292F75"/>
<path d="M27.8431 48.1453C27.548 50.925 28.0089 53.7328 29.1771 56.2723C29.8303 57.5725 30.9015 58.6154 32.2187 59.2336C33.5358 59.8518 35.0225 60.0095 36.4401 59.6813C40.2211 58.7883 42.2881 55.4393 53.1741 52.3963C54.5777 51.9798 56.0058 51.6505 57.4501 51.4103C57.5676 51.3905 57.6729 51.3261 57.7441 51.2305C57.8152 51.1349 57.8466 51.0154 57.8318 50.8972C57.8169 50.7789 57.757 50.671 57.6644 50.5959C57.5718 50.5208 57.4538 50.4844 57.3351 50.4943C52.3228 50.9771 47.4516 52.4268 42.9911 54.7633C39.0011 56.7293 35.5971 60.3233 31.7511 57.2743C30.3281 56.1463 29.7291 54.2903 29.2681 52.4873C28.9055 51.0787 28.7128 49.6317 28.6941 48.1773C28.6947 48.0653 28.652 47.9573 28.5748 47.876C28.4976 47.7948 28.392 47.7465 28.2801 47.7413C28.2248 47.739 28.1697 47.7477 28.1178 47.7668C28.0659 47.7859 28.0183 47.815 27.9777 47.8526C27.9371 47.8901 27.9043 47.9353 27.8812 47.9855C27.8581 48.0358 27.8451 48.0901 27.8431 48.1453Z" fill="#292F75"/>
<path d="M75.2749 35.4013C75.0562 34.1856 74.4941 33.0578 73.6549 32.1513C71.6139 29.9753 68.8159 30.9953 61.0809 30.7003C60.9601 30.6965 60.8403 30.7236 60.7329 30.7792C60.6255 30.8347 60.5341 30.9168 60.4674 31.0176C60.4007 31.1184 60.3608 31.2346 60.3516 31.3551C60.3424 31.4757 60.3642 31.5966 60.4149 31.7063C60.9458 33.121 61.2495 34.6107 61.3149 36.1203C61.9112 41.0564 61.1402 46.0615 59.0859 50.5893C59.0349 50.6968 59.0122 50.8155 59.0198 50.9343C59.0274 51.053 59.0652 51.1679 59.1296 51.268C59.1939 51.3681 59.2827 51.4501 59.3876 51.5063C59.4925 51.5625 59.61 51.5911 59.7289 51.5893L60.6939 51.5583C60.8609 52.9723 59.8299 53.4003 59.2939 55.1783C58.8209 56.7553 59.3339 58.0183 58.3059 59.2073C57.4379 60.1613 55.5939 60.6073 54.6969 61.9353C53.5409 63.6033 54.7089 65.8433 56.3749 66.9603C62.3639 71.0183 67.8749 58.1693 67.7299 50.7713C70.9129 50.6073 73.0969 49.5893 74.4299 46.2813C77.1469 46.3163 77.8679 43.8423 78.0949 41.1473C78.3369 38.4703 77.9449 35.5543 75.2749 35.4013ZM66.4599 51.4803C65.248 51.8539 63.953 51.863 62.7359 51.5063C62.2249 51.2533 62.3189 50.6943 62.9199 50.6793C64.0732 50.5651 65.2326 50.525 66.3909 50.5593C66.5109 50.5539 66.6283 50.5955 66.7182 50.6752C66.808 50.755 66.8633 50.8665 66.8723 50.9863C66.8813 51.1061 66.8432 51.2247 66.7662 51.3169C66.6893 51.4091 66.5794 51.4677 66.4599 51.4803ZM66.9889 36.7853C68.5739 36.471 70.2057 36.4755 71.7889 36.7983C71.9109 36.8075 72.0243 36.8647 72.1041 36.9574C72.1839 37.0502 72.2236 37.1708 72.2144 37.2928C72.2053 37.4148 72.1481 37.5282 72.0553 37.608C71.9626 37.6878 71.8419 37.7275 71.7199 37.7183C70.1638 37.7686 68.6061 37.7389 67.0529 37.6293C66.5149 37.5803 66.3999 36.9603 66.9889 36.7853ZM67.5889 39.7743C68.9238 39.4132 70.3238 39.3636 71.6809 39.6293C71.7414 39.6323 71.8007 39.6472 71.8554 39.6732C71.9101 39.6991 71.9592 39.7355 71.9998 39.7804C72.0405 39.8253 72.0718 39.8778 72.0922 39.9348C72.1125 39.9919 72.1215 40.0523 72.1184 40.1128C72.1154 40.1733 72.1005 40.2326 72.0746 40.2873C72.0487 40.342 72.0122 40.3911 71.9673 40.4317C71.9224 40.4723 71.8699 40.5037 71.8129 40.5241C71.7559 40.5444 71.6954 40.5533 71.6349 40.5503C70.3265 40.6653 69.0113 40.6853 67.6999 40.6103C67.0579 40.5443 67.0829 39.9383 67.5859 39.7743H67.5889ZM71.9539 43.0103C70.6036 43.1687 69.2445 43.2409 67.8849 43.2263C67.3049 43.1993 67.2179 42.5823 67.7469 42.3903C69.117 41.9767 70.5622 41.8742 71.9769 42.0903C72.0916 42.1035 72.1971 42.1591 72.2728 42.2462C72.3484 42.3332 72.3888 42.4455 72.3859 42.5608C72.3831 42.6761 72.3371 42.7862 72.2572 42.8694C72.1772 42.9526 72.0691 43.0028 71.9539 43.0103Z" fill="#0052FF"/>
<path d="M81.7691 59.4723C81.7525 59.0665 81.5928 58.6796 81.3182 58.3804C81.0436 58.0811 80.672 57.8887 80.2691 57.8373C79.6421 57.7603 79.0691 58.0633 78.2691 58.0613C76.9211 58.0543 74.8291 57.2453 73.1891 57.2613C72.4377 57.2471 71.6955 57.4278 71.0348 57.7858C70.3741 58.1439 69.8174 58.667 69.4191 59.3043C69.0509 59.9495 68.8982 60.6953 68.9831 61.4333C67.5111 62.5093 67.2751 64.6123 67.3961 66.4333C67.5195 67.7612 67.8053 69.0689 68.2471 70.3273C68.9881 72.8723 71.3711 73.8713 74.1771 71.9813C76.5041 70.4323 76.2871 67.1603 76.0621 64.6333C78.9631 64.5423 81.8641 61.7223 81.7691 59.4723ZM70.2071 63.2323C68.9191 65.4833 69.5561 66.1083 69.6551 68.3463C69.6688 68.4654 69.6361 68.5851 69.5637 68.6807C69.4914 68.7763 69.385 68.8403 69.2667 68.8595C69.1484 68.8787 69.0273 68.8515 68.9284 68.7837C68.8296 68.7159 68.7607 68.6126 68.7361 68.4953C67.8971 65.5543 68.5491 63.5333 69.5361 62.6953C69.9911 62.3103 70.4771 62.7593 70.2071 63.2323ZM71.8621 59.8103C71.6505 59.9302 71.4877 60.1206 71.4021 60.3483C71.1841 61.0803 69.6881 60.4833 71.3101 59.0813C71.3576 59.0442 71.4121 59.0169 71.4702 59.0008C71.5283 58.9848 71.5891 58.9805 71.6489 58.988C71.7088 58.9955 71.7665 59.0148 71.8189 59.0447C71.8713 59.0746 71.9172 59.1146 71.9541 59.1623C71.992 59.2103 72.0198 59.2655 72.0358 59.3246C72.0517 59.3837 72.0555 59.4454 72.0469 59.506C72.0383 59.5666 72.0175 59.6248 71.9857 59.6771C71.954 59.7294 71.9119 59.7747 71.8621 59.8103Z" fill="#292F75"/>
<path d="M63.1269 70.7463C63.1159 71.6873 63.3149 76.6093 63.5179 78.5963C63.6349 79.7463 63.7279 81.1963 64.3449 81.1633C64.8659 81.1363 64.8859 80.6703 64.9199 78.8733C64.9449 77.5733 64.5549 71.3393 64.4829 70.5733C64.4009 69.7003 64.2829 68.3733 63.7239 68.3853C63.1649 68.3973 63.1339 70.1873 63.1269 70.7463Z" fill="#292F75"/>
</svg>
