<svg width="1044" height="1838" viewBox="0 0 1044 1838" fill="none" xmlns="http://www.w3.org/2000/svg">
<g opacity="0.03">
<path d="M-453.49 340.034C-400.881 354.13 -348.082 367.516 -294.902 379.479C-261.107 387.01 -226.221 393.31 -191.664 397.997C-162.274 402.062 -132.643 402.381 -102.91 396.632C-68.1485 389.181 -40.5711 363.041 -37.2163 333.458C-33.9126 306.91 -35.065 279.93 -40.153 253.419C-49.5298 205.947 -63.9343 160.175 -80.8525 115.254L-14.0253 133.16C-8.16133 145.4 -2.81775 156.738 3.04627 168.978C17.8968 198.866 33.4582 228.945 49.0196 259.024C64.7716 288.392 82.3264 316.719 106.572 339.981C121.678 354.697 140.06 365.719 160.157 370.341C186.131 375.777 212.259 372.109 238.108 363.795C294.643 346.176 351.889 328.747 408.944 312.03C457.557 298.384 506.968 290.287 557.56 286.316L716.097 328.796C673.427 328.793 631.088 330.403 588.697 335.047C513.399 343.066 441.642 363.465 373.755 397.855C309.475 430.164 254.283 474.052 211.162 532.606C195.443 554.303 181.666 577.283 169.831 601.545C158.187 625.096 162.564 651.416 167.322 676.314C177.029 725.399 188.348 774.155 194.119 823.709C203.923 909.398 199.648 993.601 170.059 1075.59C159.214 1104.69 147.328 1131.99 129.044 1157.57C115.699 1176.1 100.412 1193.34 79.3486 1203.69C52.3565 1216.28 28.8449 1213.02 13.6134 1184.56C9.12008 1175.73 4.10643 1166.01 0.51459 1156.66C-10.2609 1128.63 -34.293 1124.47 -55.026 1136.45C-100.098 1162.47 -136.03 1197.04 -164.955 1239.58C-189.131 1275.78 -210.654 1313.45 -222.605 1355.21C-235.457 1397.49 -245.986 1439.63 -256.706 1482.48C-257.849 1486.74 -258.992 1491.01 -259.424 1495.46L-309.189 1482.13C-305.226 1458.81 -300.742 1436.38 -295.026 1415.05C-287.406 1386.62 -277.462 1358.04 -266.287 1330.55C-256.014 1303.58 -243.608 1277.19 -230.49 1250.98C-208.675 1206.53 -177.858 1168.31 -147.753 1129.89C-109.433 1080.72 -78.8817 1026.42 -59.1337 966.935C-44.4785 923.615 -36.2215 878.581 -31.5192 832.595C-25.5205 773.239 -24.1684 714.163 -32.6299 654.743C-36.4355 626.29 -44.3672 599.017 -57.517 574.157C-69.9559 549.487 -89.7969 529.692 -112.203 513.781C-143.609 491.65 -177.25 475.015 -213.456 462.265C-240.611 452.703 -266.674 441.91 -293.638 431.636C-322.214 421.693 -350.791 411.75 -379.558 402.518C-416.666 390.289 -453.964 378.771 -491.071 366.542C-510.787 360.497 -530.312 353.741 -549.316 347.887C-559.079 344.509 -568.841 341.131 -577.702 337.233C-584.43 333.906 -591.159 330.579 -597.367 328.153L-587.46 291.182C-569.738 298.979 -551.825 306.065 -533.913 313.15C-507.469 322.522 -481.216 332.605 -453.49 340.034Z" fill="#292F75"/>
<path d="M-427.042 423.324C-393.87 436.023 -359.987 448.912 -327.005 462.322C-281.608 480.582 -238.966 503.438 -199.461 532.313C-151.146 568.12 -120.149 614.527 -104.527 672.818C-84.3744 748.325 -88.1659 825.037 -103.002 900.313C-111.018 941.602 -123.489 982.458 -140.226 1022.17C-159.909 1067.19 -184.708 1108.56 -212.68 1147.54C-260.93 1213.87 -297.857 1286.27 -321.326 1365.33C-322.66 1370.31 -324.895 1375.81 -326.229 1380.78C-331.321 1396.95 -336.414 1413.11 -340.796 1429.46C-344.415 1442.97 -346.423 1456.15 -349.331 1469.85L-394.831 1457.66C-392.684 1446.8 -390.728 1436.66 -387.87 1425.99C-381.393 1401.82 -373.494 1378.03 -365.785 1354.94C-357.695 1330.44 -350.316 1305.75 -339.383 1282.01C-319.319 1235.56 -295.701 1190.07 -265.544 1148.62C-224.608 1092.53 -191.111 1032.92 -170.359 966.851C-159.983 933.816 -153.873 899.637 -149.185 865.078C-143.874 825.351 -143.92 785.712 -150.035 745.972C-158.027 690.488 -177.167 639.637 -214.284 596.162C-247.897 556.674 -290.246 527.038 -335.922 504.13C-370.795 486.404 -406.429 471.521 -442.254 457.35C-473.103 444.512 -505.234 433.616 -536.654 422.911C-562.578 414.441 -588.692 406.682 -614.094 399.113L-603.807 360.719C-569.733 372.897 -535.47 384.365 -502.107 396.352C-478.698 405.673 -452.774 414.143 -427.042 423.324Z" fill="#292F75"/>
<path d="M-99.0941 1272.47C-74.3232 1253.96 -47.8655 1251.91 -30.4129 1286.3C-28.3312 1289.91 -27.8619 1293.85 -25.7802 1297.45C-9.559 1330.76 2.51282 1345.42 43.9789 1321.48C97.1637 1290.77 138.607 1247.01 173.372 1196.88C194.793 1165.28 212.329 1131.12 223.137 1093.63C233.373 1058.27 245.933 1022.77 254.037 986.838C260.807 955.884 263.832 924.689 267.758 892.973C271.787 855.189 275.295 816.503 278.612 778.528C281.879 743.588 284.435 708.457 290.545 674.278C296.083 642.233 304.656 610.238 318.015 580.288C331.374 550.338 348.618 522.952 370.266 499.034C409.906 456.313 457.924 424.981 512.897 404.657C563.745 385.514 616.052 375.144 669.868 370.514C733.169 364.614 796.887 365.684 860.225 368.177L1042.93 417.133C973.007 413.637 902.369 409.951 832.253 407.166C772.66 404.915 713.676 408.923 654.92 420.613C593.65 433.153 536.823 457.552 487.611 496.184C433.511 538.841 397.411 593.942 375.619 658.21C357.205 712.715 346.61 769.315 336.537 826.816C334.199 838.383 332.383 850.851 330.046 862.417C324.697 893.752 321.291 926.369 313.099 956.941C297.046 1019.7 282.414 1082.84 254.985 1142.55C237.918 1180.65 218.718 1218.18 192.46 1250.77C145.405 1309.79 96.5969 1366.82 49.7315 1425.13C-0.763084 1488.45 -86.837 1559.42 -125.893 1626.38L-205.394 1509.94C-203.907 1495.86 -201.9 1482.68 -198.661 1470.6C-189.656 1434.14 -180.651 1397.69 -164.536 1363.15C-147.521 1328.08 -129.655 1295.53 -99.0941 1272.47Z" fill="#292F75"/>
</g>
</svg>
