<svg width="642" height="1174" viewBox="0 0 642 1174" fill="none" xmlns="http://www.w3.org/2000/svg">
<g opacity="0.03">
<path d="M-527.654 250.207C-484.194 250.207 -440.735 249.619 -397.276 247.857C-369.673 246.683 -341.483 244.333 -313.881 240.809C-290.389 237.873 -267.485 231.999 -245.755 221.427C-220.502 208.506 -204.645 182.663 -208.169 159.169C-211.105 138.025 -217.566 117.468 -226.962 98.0858C-243.994 63.4327 -264.549 31.129 -286.866 0H-231.661C-224.613 8.22276 -218.153 15.8582 -211.105 24.0809C-193.487 44.0505 -175.281 64.02 -157.075 83.9896C-138.869 103.372 -119.489 121.579 -95.9971 134.501C-81.3149 142.724 -64.8709 147.422 -48.4268 146.835C-27.2845 145.66 -7.90399 137.438 10.3019 125.691C50.2375 100.435 90.7603 75.1795 131.283 50.5112C165.933 29.9543 202.345 13.5088 240.519 0H371.484C338.596 8.8101 306.295 18.7949 274.581 31.129C218.202 52.8606 167.108 83.4023 121.887 123.929C79.0145 162.106 45.5392 207.331 24.3968 261.366C16.7621 281.336 10.8892 301.893 6.77821 323.037C2.66719 343.594 11.4765 362.976 20.2858 381.184C37.9044 417.011 56.6976 452.252 71.3798 489.254C96.6332 553.274 110.728 619.056 104.855 688.362C102.506 713.031 98.9823 736.524 90.173 760.018C83.7129 777.051 75.4908 793.496 61.3959 805.83C43.19 821.101 24.3968 823.45 6.77821 804.656C1.49262 798.782 -4.38028 792.321 -9.07858 785.861C-23.1735 766.478 -42.554 768.24 -56.0616 781.749C-85.426 811.116 -105.981 845.182 -119.489 883.946C-130.647 916.837 -139.456 950.316 -140.044 984.969C-141.218 1020.21 -140.631 1054.86 -140.044 1090.1C-140.044 1093.63 -140.044 1097.15 -139.456 1100.67H-180.567C-182.328 1081.88 -183.503 1063.67 -183.503 1046.05C-183.503 1022.56 -181.741 998.478 -178.805 974.984C-176.456 952.078 -172.345 929.172 -167.646 906.265C-160.011 867.501 -144.155 831.673 -128.885 795.845C-109.505 750.033 -97.1717 701.871 -94.2353 651.947C-91.8861 615.532 -94.8226 579.117 -100.695 542.702C-108.33 495.715 -119.489 449.902 -138.282 405.852C-147.091 384.708 -158.837 365.325 -174.106 348.88C-188.789 332.434 -208.169 321.275 -228.724 313.639C-257.501 303.067 -286.866 297.194 -317.405 294.845C-340.309 293.083 -362.626 290.146 -385.53 287.797C-409.609 286.034 -433.687 284.272 -457.766 283.098C-488.893 281.336 -520.019 280.161 -551.145 278.399C-567.589 277.812 -584.033 276.637 -599.89 276.05C-608.112 275.462 -616.334 274.875 -623.969 273.7C-629.842 272.526 -635.714 271.351 -641 270.764V240.222C-625.731 242.571 -610.461 244.333 -595.192 246.095C-572.875 247.857 -550.558 250.207 -527.654 250.207Z" fill="#292F75"/>
<path d="M-61.9342 895.693C-46.6647 876.311 -26.6969 869.263 -6.14185 892.169C-3.7927 894.519 -2.61812 897.455 -0.268974 899.805C19.1115 922.124 31.4445 930.934 58.4598 903.916C93.1097 869.263 116.014 826.975 132.458 781.162C142.442 752.382 148.902 722.428 149.489 691.299C150.077 661.932 152.426 631.978 151.251 602.611C150.077 577.355 145.966 552.687 142.442 527.431C137.744 497.477 132.458 466.935 127.172 436.981C122.474 409.376 117.189 381.771 114.839 354.166C112.49 328.323 112.49 301.893 116.601 276.05C120.712 250.207 128.347 225.539 140.093 202.632C161.822 161.518 192.361 127.453 230.535 100.435C265.772 75.1796 303.946 56.3847 344.469 41.7012C392.039 24.081 441.371 11.7469 490.703 0.587402H641.636C587.019 12.3342 531.814 24.081 477.196 36.4151C430.8 46.9872 386.166 62.2581 343.294 83.4023C298.66 105.721 259.899 136.263 229.948 176.202C197.06 220.252 180.616 270.176 177.092 324.212C174.155 370.024 177.679 415.837 181.79 462.236C182.377 471.634 183.552 481.619 184.139 491.016C186.489 516.272 190.599 542.115 190.599 567.37C191.187 619.056 192.949 670.742 184.139 722.428C178.854 755.319 171.806 788.21 158.299 818.752C134.22 873.962 108.379 927.997 84.3004 982.62C58.4577 1041.85 6.77352 1114.33 -9.49994 1174L-94.8223 1100.67C-96.5841 1089.52 -97.7587 1078.94 -97.7587 1068.96C-98.346 1039 -98.9332 1009.05 -93.6477 979.096C-87.7748 948.554 -80.7274 919.774 -61.9342 895.693Z" fill="#292F75"/>
</g>
</svg>
