<svg width="641" height="1189" viewBox="0 0 641 1189" fill="none" xmlns="http://www.w3.org/2000/svg">
<g opacity="0.03">
<path d="M1140.29 250.207C1096.83 250.207 1053.37 249.619 1009.91 247.857C982.31 246.683 954.12 244.333 926.518 240.809C903.026 237.873 880.122 231.999 858.392 221.427C833.139 208.506 817.282 182.663 820.806 159.169C823.742 138.025 830.202 117.468 839.599 98.0858C856.63 63.4327 877.185 31.129 899.502 0H844.297C837.25 8.22276 830.79 15.8582 823.742 24.0809C806.124 44.0505 787.918 64.02 769.712 83.9896C751.506 103.372 732.125 121.579 708.634 134.501C693.952 142.724 677.508 147.422 661.064 146.835C639.921 145.66 620.541 137.438 602.335 125.691C562.399 100.435 521.876 75.1795 481.354 50.5112C446.704 29.9543 410.292 13.5088 372.118 0H241.153C274.041 8.8101 306.342 18.7949 338.055 31.129C394.435 52.8606 445.529 83.4023 490.75 123.929C533.622 162.106 567.098 207.331 588.24 261.366C595.875 281.336 601.747 301.893 605.859 323.037C609.97 343.594 601.16 362.976 592.351 381.184C574.732 417.011 555.939 452.252 541.257 489.254C516.004 553.274 501.909 619.056 507.782 688.362C510.131 713.031 513.654 736.524 522.464 760.018C528.924 777.051 537.146 793.496 551.241 805.83C569.447 821.101 588.24 823.45 605.859 804.656C611.144 798.782 617.017 792.321 621.715 785.861C635.81 766.478 655.191 768.24 668.698 781.749C698.063 811.116 718.618 845.182 732.125 883.946C743.284 916.837 752.093 950.316 752.68 984.969C753.855 1020.21 753.268 1054.86 752.68 1090.1C752.68 1093.63 752.68 1097.15 752.093 1100.67H793.203C794.965 1081.88 796.14 1063.67 796.14 1046.05C796.14 1022.56 794.378 998.478 791.441 974.984C789.092 952.078 784.981 929.172 780.283 906.265C772.648 867.501 756.791 831.673 741.522 795.845C722.141 750.033 709.808 701.871 706.872 651.947C704.523 615.532 707.459 579.117 713.332 542.702C720.967 495.715 732.125 449.902 750.919 405.852C759.728 384.708 771.474 365.325 786.743 348.88C801.425 332.434 820.806 321.275 841.361 313.639C870.138 303.067 899.502 297.194 930.041 294.845C952.945 293.083 975.262 290.146 998.167 287.797C1022.25 286.034 1046.32 284.272 1070.4 283.098C1101.53 281.336 1132.66 280.161 1163.78 278.399C1180.23 277.812 1196.67 276.637 1212.53 276.05C1220.75 275.462 1228.97 274.875 1236.61 273.7C1242.48 272.526 1248.35 271.351 1253.64 270.764V240.222C1238.37 242.571 1223.1 244.333 1207.83 246.095C1185.51 247.857 1163.19 250.207 1140.29 250.207Z" fill="#292F75"/>
<path d="M703.571 910.693C688.301 891.311 668.334 884.263 647.779 907.169C645.429 909.519 644.255 912.455 641.906 914.805C622.525 937.124 610.192 945.934 583.177 918.916C548.527 884.263 525.623 841.975 509.179 796.162C499.195 767.382 492.735 737.428 492.147 706.299C491.56 676.932 489.211 646.978 490.385 617.611C491.56 592.355 495.671 567.687 499.195 542.431C503.893 512.477 509.179 481.935 514.464 451.981C519.163 424.376 524.448 396.771 526.797 369.166C529.146 343.323 529.146 316.893 525.035 291.05C520.924 265.207 513.29 240.539 501.544 217.632C479.814 176.518 449.275 142.453 411.102 115.435C339.781 64.3178 236.107 19.2671 150.933 0H0.000366211C96.6983 20.7971 209.325 54.4992 298.342 98.4023C342.976 120.721 381.737 151.263 411.689 191.202C444.577 235.252 461.021 285.176 464.545 339.212C467.481 385.024 463.958 430.837 459.847 477.236C459.259 486.634 458.085 496.619 457.497 506.016C455.148 531.272 451.037 557.115 451.037 582.37C450.45 634.056 448.688 685.742 457.497 737.428C462.783 770.319 469.83 803.21 483.338 833.752C507.417 888.962 533.257 942.997 557.336 997.62C583.179 1056.85 634.863 1129.33 651.137 1189L736.459 1115.67C738.221 1104.52 739.395 1093.94 739.395 1083.96C739.983 1054 740.57 1024.05 735.284 994.096C729.412 963.554 722.364 934.774 703.571 910.693Z" fill="#292F75"/>
</g>
</svg>
