<svg width="730" height="1715" viewBox="0 0 730 1715" fill="none" xmlns="http://www.w3.org/2000/svg">
<g opacity="0.03">
<path d="M137.117 785.788C161.835 779.876 186.554 773.963 211.45 768.714C234.356 763.998 257.748 758.441 281.188 755.715C325.414 750.975 369.51 748.401 414.235 753.48C472.142 760.003 524.757 778.609 569.213 817.174C623.453 863.071 656.126 923.988 678.057 989.918C685.604 1012.78 689.172 1036.71 694.729 1060.1C701.401 1090.3 703.252 1121.09 701.431 1151.44C696.736 1218.81 689.874 1286.06 698.006 1353.55C701.136 1381.15 705.107 1409.24 711.068 1436.79C717.384 1465.67 725.868 1494.67 733.51 1523.2L682.439 1536.88C680.436 1526.75 678.611 1517.29 676.123 1508C665.103 1466.88 658.063 1424.69 653.676 1381.78C647.369 1323.75 648.713 1265.1 656.737 1207.49C667.744 1129.18 659.646 1053.86 629.435 980.906C611.735 938.727 588.777 900.8 556.095 869.033C519.16 832.007 474.457 808.438 423.312 797.97C345.576 781.119 268.625 791.074 192.48 809.344C167.761 815.257 144.109 825.149 119.616 834.556L108.597 793.43C117.882 790.942 126.99 787.79 137.117 785.788Z" fill="#292F75"/>
<path d="M203.725 636.416C252.807 623.265 301.71 609.45 350.258 594.309C381.076 584.63 412.202 573.446 442.309 561.113C467.95 550.687 492.04 537.123 513.382 518.608C537.992 496.373 548.08 462.388 536.99 436.922C527.276 413.931 513.759 392.669 497.282 373.623C467.56 339.641 434.571 309.379 399.947 280.976L462.294 264.27C472.741 271.424 482.347 278.093 492.795 285.246C518.736 302.468 545.34 319.511 571.944 336.555C598.37 352.935 625.768 367.633 656.209 375.117C675.278 379.961 695.272 380.291 713.665 374.652C737.187 366.927 756.587 351.776 773.593 333C811.052 292.392 849.174 251.607 887.475 211.485C920.386 177.783 956.532 148.191 995.556 121.383L1143.46 81.7515C1108.99 101.654 1075.53 122.705 1043.45 146.231C986.348 187.835 937.887 237.79 899.079 297.243C862.214 353.333 838.094 414.539 830.568 481.962C827.989 506.825 827.577 531.819 829.333 556.942C830.911 581.403 846.725 600.626 862.184 618.524C892.923 653.654 924.812 687.767 952.591 725.113C1000.48 789.773 1036.31 859.8 1050.65 939.849C1055.46 968.419 1058.59 996.018 1055.75 1025.22C1053.61 1046.41 1049.3 1067.47 1037.12 1085.66C1021.18 1108.42 1000.66 1116.76 975.076 1100.87C967.33 1095.83 958.742 1090.31 951.481 1084.44C929.697 1066.81 908.343 1074.67 897.176 1094.01C872.899 1136.06 859.994 1180.76 856.47 1228.62C853.821 1269.15 854.003 1309.62 863.826 1348.93C873.164 1389.09 884.313 1428.05 895.641 1467.67C896.707 1471.65 897.774 1475.63 899.503 1479.43L853.075 1491.87C845.398 1471.18 838.561 1450.97 833.229 1431.07C826.12 1404.54 820.822 1376.81 817.029 1349.39C812.751 1322.81 810.462 1295.69 808.836 1268.4C805.728 1222.31 812.794 1177.05 819.197 1131.97C827.221 1074.37 826.575 1016.24 814.784 958.97C806.417 917.133 792.081 876.896 774.429 837.547C751.588 786.792 725.122 738.43 690.568 694.368C674.22 673.154 655.09 654.819 632.868 640.866C611.31 626.736 586.046 619.998 560.521 617.595C524.822 614.364 489.881 616.616 454.681 623.205C428.28 628.146 402.188 631.583 375.61 635.86C347.883 641.157 320.156 646.454 292.607 652.413C256.92 659.843 221.412 667.935 185.726 675.364C166.977 679.677 148.05 683.327 129.964 687.462C120.501 689.287 111.038 691.111 102.06 692.095C95.0716 692.546 88.0835 692.996 81.9364 693.932L72.6941 659.44C90.6499 657.472 108.428 654.842 126.206 652.211C151.943 647.447 177.858 643.347 203.725 636.416Z" fill="#292F75"/>
<path d="M263.947 691.374C296.673 686.16 330.061 680.769 362.964 676.218C408.161 669.795 453.276 668.371 498.664 673.272C554.404 679.664 601.097 702.7 640.91 742.51C692.414 794.116 725.135 857.865 748.262 925.606C761.047 962.705 770.029 1001.53 775.031 1041.43C780.129 1086.98 779.388 1131.97 774.975 1176.52C766.929 1252.62 770.869 1328.34 788.786 1403.17C790.03 1407.81 790.789 1413.29 792.033 1417.94C795.458 1433.37 798.882 1448.81 802.97 1464.06C806.347 1476.67 810.873 1488.25 814.913 1500.68L772.465 1512.05C769.135 1502.28 765.984 1493.17 763.318 1483.22C757.275 1460.67 752.558 1437.76 748.019 1415.51C743.125 1391.94 737.568 1368.55 735.326 1344.26C729.873 1297.38 727.736 1249.61 732.764 1202.05C739.675 1137.64 738.933 1073.85 724.879 1010.79C717.852 979.255 706.845 948.79 694.512 918.68C680.272 884.105 661.744 852.1 638.265 822.844C605.926 781.743 566.741 749.586 516.472 731.774C470.894 715.549 422.853 711.359 375.263 714.157C338.818 716.102 303.084 720.7 267.528 725.962C236.615 729.979 205.572 736.165 175.192 742.172C150.295 747.421 125.577 753.333 101.522 759.068L91.9241 723.249C125.135 717.194 158.168 710.475 190.715 704.598C213.977 701.209 238.873 695.96 263.947 691.374Z" fill="#292F75"/>
<path d="M925.025 1224.47C936.404 1197.96 956.822 1183.96 986.968 1203.61C990.332 1205.55 992.547 1208.51 995.911 1210.46C1024.55 1229.8 1041.15 1236.02 1063.48 1197.33C1092.13 1147.71 1105.2 1093.02 1109.91 1036.3C1112.47 1000.78 1110.7 964.992 1101.95 929.658C1093.72 896.315 1087.31 861.774 1077.1 828.964C1068.13 800.796 1056.02 774.181 1044.4 746.724C1030.03 714.317 1014.82 681.424 999.783 649.194C986.123 619.44 971.8 589.863 960.794 559.398C950.32 530.923 942.322 501.073 939.145 470.643C935.967 440.213 937.124 410.043 943.458 380.619C955.557 327.611 979.738 279.897 1014.67 237.832C1046.83 198.646 1084.25 165.868 1125.57 137.022C1173.97 102.727 1225.95 73.8692 1278.28 46.3375L1448.74 0.663409C1390.61 30.4578 1331.82 60.43 1273.87 90.8877C1224.67 116.867 1178.89 147.62 1136.87 184.474C1093.21 223.187 1058.68 269.409 1036.94 323.578C1013.13 383.28 1009.66 444.638 1022.03 506.73C1032.58 559.358 1050.42 610.03 1069.11 661.189C1072.62 671.624 1076.96 682.545 1080.47 692.98C1090.77 720.792 1103.23 748.735 1110.87 777.257C1127.18 835.452 1144.81 893.291 1150.5 954.329C1154.48 993.074 1156.48 1032.35 1150.46 1070.93C1139.98 1140.57 1127.15 1209.42 1116.48 1278.39C1105.22 1353.1 1068.78 1450.6 1068.46 1522.92L949.912 1465.92C944.545 1453.85 940.019 1442.27 936.998 1430.99C927.27 1397.34 917.542 1363.69 914.447 1328.26C911.837 1291.99 911.087 1257.36 925.025 1224.47Z" fill="#292F75"/>
</g>
</svg>
