<svg xmlns="http://www.w3.org/2000/svg" width="16" height="18" viewBox="1327.25 274.25 16 18"><g data-name="Group 48"><path d="M1341.25 282.25v3a4 4 0 0 0 2 3h-16a4 4 0 0 0 2-3v-3a7 7 0 0 1 4-6 2 2 0 0 1 2-2 2 2 0 0 1 2 2 7 7 0 0 1 4 6Z" stroke-linejoin="round" stroke-linecap="round" stroke-width="1.5" stroke="#000" fill="transparent" data-name="Path 29"/><path d="M1338.25 288.25v1a3 3 0 1 1-6 0v-1" stroke-linejoin="round" stroke-linecap="round" stroke-width="1.5" stroke="#000" fill="transparent" data-name="Path 30"/></g></svg>