<svg xmlns="http://www.w3.org/2000/svg" width="16" height="16" viewBox="1031.25 235.119 16 16"><g data-name="Group 5"><g data-name="Rectangle 7"><path d="M1033.25 235.119h12a2 2 0 0 1 2 2v12a2 2 0 0 1-2 2h-12a2 2 0 0 1-2-2v-12a2 2 0 0 1 2-2" fill="#fff" fill-rule="evenodd"/><path d="M1033.25 235.119h12a2 2 0 0 1 2 2v12a2 2 0 0 1-2 2h-12a2 2 0 0 1-2-2v-12a2 2 0 0 1 2-2" stroke-linejoin="round" stroke-linecap="round" stroke-width="1.5" stroke="#fff" fill="transparent"/></g><path d="m1037.25 241.119 4 4m0-4-4 4" stroke-linejoin="round" stroke-linecap="round" stroke-width="1.5" stroke="#fc0753" fill="transparent" data-name="Path 12"/></g></svg>