<svg xmlns="http://www.w3.org/2000/svg" width="49.498" height="49.498" viewBox="1492.553 365.95 49.498 49.498"><g data-name="Group 100"><path d="M1529.676 403.073a17.52 17.52 0 0 0 0-24.749c-6.823-6.823-17.925-6.823-24.749 0a17.52 17.52 0 0 0 0 24.749c6.824 6.823 17.926 6.823 24.75 0Zm-22.274-2.475c5.459 5.459 14.34 5.459 19.8 0 5.458-5.459 5.458-14.34 0-19.799-5.46-5.459-14.341-5.459-19.8 0-5.458 5.459-5.458 14.34 0 19.799Z" fill="#0f0b82" fill-rule="evenodd" data-name="Ellipse 6"/><path d="m1519.777 395.648-7.425-7.424a1.75 1.75 0 0 1 2.475-2.475l7.425 7.424a1.75 1.75 0 0 1-2.475 2.475Z" fill="#0f0b82" fill-rule="evenodd" data-name="Line 10"/><path d="m1512.352 393.173 7.425-7.424a1.75 1.75 0 0 1 2.475 2.475l-7.425 7.424a1.75 1.75 0 0 1-2.475-2.475Z" fill="#0f0b82" fill-rule="evenodd" data-name="Line 11"/></g></svg>