<svg xmlns="http://www.w3.org/2000/svg" width="17.997" height="17.997" viewBox="378.261 247.261 17.997 17.997"><g data-name="Group 8"><path d="M382.45 249.25h1a2.2 2.2 0 0 0 1.55-.64l.7-.7a2.2 2.2 0 0 1 1.56-.649 2.2 2.2 0 0 1 1.56.649l.7.7c.412.41.97.64 1.55.64h1a2.2 2.2 0 0 1 2.2 2.2v1a2.2 2.2 0 0 0 .64 1.55l.7.7a2.2 2.2 0 0 1 .649 1.56 2.2 2.2 0 0 1-.649 1.56l-.7.7a2.2 2.2 0 0 0-.64 1.55v1a2.2 2.2 0 0 1-2.2 2.2h-1a2.2 2.2 0 0 0-1.55.64l-.7.7a2.2 2.2 0 0 1-1.56.649 2.2 2.2 0 0 1-1.56-.649l-.7-.7a2.2 2.2 0 0 0-1.55-.64h-1a2.2 2.2 0 0 1-2.2-2.2v-1a2.2 2.2 0 0 0-.64-1.55l-.7-.7a2.2 2.2 0 0 1-.649-1.56 2.2 2.2 0 0 1 .649-1.56l.7-.7a2.2 2.2 0 0 0 .64-1.55v-1a2.2 2.2 0 0 1 2.2-2.2Z" stroke-linejoin="round" stroke-linecap="round" stroke-width="1.5" stroke="#000" fill="transparent" data-name="Path 21"/></g></svg>