<svg xmlns="http://www.w3.org/2000/svg" width="376" height="42" viewBox="617 151 376 42"><g data-name="Rectangle 15"><path d="M628 151h354a11 11 0 0 1 11 11v20a11 11 0 0 1-11 11H628a11 11 0 0 1-11-11v-20a11 11 0 0 1 11-11" fill="#fcfcfc" fill-rule="evenodd"/><path d="M11 0h354a11 11 0 0 1 11 11v20a11 11 0 0 1-11 11H11A11 11 0 0 1 0 31V11A11 11 0 0 1 11 0" stroke-linejoin="round" stroke-linecap="round" stroke="rgba(112,112,112,0.2 )" fill="transparent" transform="matrix(.99734 0 0 .97619 617.5 151.5)"/></g></svg>