<svg xmlns="http://www.w3.org/2000/svg" width="26" height="26" viewBox="1040 821 26 26"><g data-name="search (4)"><path d="M1040 821h26v26h-26v-26" fill="rgba(255,255,255,0.011764705882352941 )" fill-rule="evenodd" data-name="Rectangle 2"/><path d="M1051.375 842.396a9.986 9.986 0 0 1-7.086-2.935 9.986 9.986 0 0 1-2.935-7.086c0-1.352.265-2.665.788-3.9a9.986 9.986 0 0 1 2.147-3.186 9.986 9.986 0 0 1 3.185-2.147 9.959 9.959 0 0 1 3.901-.788c1.352 0 2.665.265 3.9.788a9.986 9.986 0 0 1 3.186 2.147 9.986 9.986 0 0 1 2.147 3.185 9.959 9.959 0 0 1 .788 3.901 9.959 9.959 0 0 1-.788 3.9 9.986 9.986 0 0 1-2.147 3.186 9.986 9.986 0 0 1-3.185 2.147 9.959 9.959 0 0 1-3.901.788Zm0-18.417a8.34 8.34 0 0 0-5.937 2.46 8.34 8.34 0 0 0-2.459 5.936 8.34 8.34 0 0 0 2.46 5.937 8.34 8.34 0 0 0 5.936 2.459 8.34 8.34 0 0 0 5.937-2.46 8.34 8.34 0 0 0 2.459-5.936 8.34 8.34 0 0 0-2.46-5.937 8.34 8.34 0 0 0-5.936-2.459Z" fill="#333" fill-rule="evenodd" data-name="Path 4"/><path d="M1053.907 829.383a.81.81 0 0 0 .532.199.816.816 0 0 0 .16-.016.809.809 0 0 0 .415-.222c.2-.2.273-.477.222-.735a.809.809 0 0 0-.222-.414 5.112 5.112 0 0 0-3.639-1.508 5.112 5.112 0 0 0-3.639 1.508.824.824 0 0 0-.039.042.813.813 0 0 0 .04 1.107.824.824 0 0 0 .041.039c.196.17.453.23.693.183a.809.809 0 0 0 .414-.222 3.498 3.498 0 0 1 2.49-1.032 3.498 3.498 0 0 1 2.49 1.032.824.824 0 0 0 .042.039Z" fill="#333" fill-rule="evenodd" data-name="Path 5"/><path d="m1062.017 844.166-4.596-4.596a.809.809 0 0 1-.223-.415.812.812 0 0 1 1.33-.774.824.824 0 0 1 .042.04l4.596 4.596a.809.809 0 0 1 .222.414.812.812 0 0 1-.183.693.824.824 0 0 1-.04.042.809.809 0 0 1-.414.222.816.816 0 0 1-.16.016.81.81 0 0 1-.532-.199.824.824 0 0 1-.042-.04Z" fill="#333" fill-rule="evenodd" data-name="Path 6"/></g></svg>