<svg xmlns="http://www.w3.org/2000/svg" width="48" height="48" viewBox="396 319 48 48"><g data-name="upload-two"><path d="M396 319h48v48h-48v-48" fill="rgba(255,255,255,0.011764705882352941 )" fill-rule="evenodd" data-name="Rectangle 12"/><path d="m418.508 358.5-.008-18" stroke-linejoin="round" stroke-linecap="round" stroke-width="3" stroke="#adadad" fill="transparent" data-name="Path 15"/><path d="M401.921 349.003a14.73 14.73 0 0 1-3.7-9.769c0-.168.002-.336.008-.504a14.712 14.712 0 0 1 1.66-6.305 14.738 14.738 0 0 1 13.063-7.925 14.778 14.778 0 0 1 1.691.097 14.737 14.737 0 0 1 12.589 10.977h2.32c4.018-.003 7.735 2.096 8.948 5.926a9.218 9.218 0 0 1 .38 1.81 9.212 9.212 0 0 1-3.862 8.506" stroke-linejoin="round" stroke-linecap="round" stroke-width="3" stroke="#adadad" fill="transparent" data-name="Path 16"/><path d="m412.136 345.136 6.364-6.364 6.364 6.364" stroke-linejoin="round" stroke-linecap="round" stroke-width="3" stroke="#adadad" fill="transparent" data-name="Path 17"/></g></svg>