<svg xmlns="http://www.w3.org/2000/svg" width="16.6" height="32.001" viewBox="1567.7 43.999 16.6 32.001"><g data-name="Mask Group 1" transform="translate(-62)" clip-path="url(&quot;#a&quot;)"><path d="M1640.485 76V61.427h4.915l.73-5.707h-5.647v-3.633a4.662 4.662 0 0 1 .137-1.237c.23-.823.797-1.375 2.06-1.506a6.055 6.055 0 0 1 .626-.03h2.994v-5.087a39.717 39.717 0 0 0-4.237-.227 39.704 39.704 0 0 0-.149 0 8.241 8.241 0 0 0-3.684.793c-1.601.795-2.764 2.177-3.306 4.097a9.693 9.693 0 0 0-.34 2.633v4.187h-4.884v5.706h4.896V76h5.889Z" fill="#100082" fill-rule="evenodd" data-name="__TEMP__SVG__"/></g><defs><clipPath id="a"><path d="M0 0h32v32H0V0" data-name="Rectangle 2" transform="translate(1622 44)"/></clipPath></defs></svg>