<svg xmlns="http://www.w3.org/2000/svg" width="26.338" height="26.338" viewBox="890.864 2214.331 26.338 26.338"><path d="M904.033 2214.331c-7.273 0-13.169 5.897-13.169 13.17a13.17 13.17 0 0 0 13.169 13.168c7.272 0 13.169-5.896 13.169-13.169 0-7.272-5.897-13.169-13.17-13.169Zm3.292 8.78h-1.482c-.523 0-.68.19-.708.66a3.208 3.208 0 0 0-.005.193v1.341h2.195l-.23 2.195h-1.965v7.682h-3.292v-7.682h-2.195v-2.195h2.195v-2.533a3.84 3.84 0 0 1 .183-1.245c.361-1.052 1.265-1.63 2.805-1.701a7.236 7.236 0 0 1 .336-.008h2.163v3.292Z" fill="#fff" fill-rule="evenodd" data-name="iconmonstr-facebook-4"/></svg>