<svg xmlns="http://www.w3.org/2000/svg" width="28.229" height="28.507" viewBox="1749.886 45.746 28.229 28.507"><g data-name="Mask Group 4" transform="translate(1.746 1.746)" clip-path="url(&quot;#a&quot;)"><g data-name="__TEMP__SVG__"><path d="M1770.46 61.104h-8.067v-5.701h13.975v5.701h-.006c-1.322 6.506-7.073 11.403-13.97 11.403-7.87 0-14.253-6.382-14.253-14.253 0-7.872 6.382-14.254 14.254-14.254a15.277 15.277 0 0 1 .01 0 14.24 14.24 0 0 1 11.795 6.261l-4.673 3.27a8.553 8.553 0 0 0-7.133-3.833c-.82 0-1.65.118-2.464.364a8.552 8.552 0 0 0-6.087 8.189 11.205 11.205 0 0 0 0 .003 8.624 8.624 0 0 0 0 .01 8.552 8.552 0 0 0 7.106 8.429 8.552 8.552 0 0 0 9.513-5.589Z" fill="#100082" fill-rule="evenodd" data-name="Path 4"/></g></g><defs><clipPath id="a"><path d="M0 0h28v28H0V0" data-name="Rectangle 4" transform="translate(1748.254 44.254)"/></clipPath></defs></svg>