<svg xmlns="http://www.w3.org/2000/svg" width="26.338" height="26.338" viewBox="928.176 2214.331 26.338 26.338"><path d="M941.344 2214.331c-7.272 0-13.168 5.897-13.168 13.17a13.17 13.17 0 0 0 13.168 13.168c7.273 0 13.17-5.896 13.17-13.169 0-7.272-5.897-13.169-13.17-13.169Zm-.2 9.86-1.214 1.171a2.4 2.4 0 0 0-.105-.094 2.514 2.514 0 0 0-1.535-.593 2.998 2.998 0 0 0-.147-.004c-1.53 0-2.777 1.267-2.777 2.83 0 1.563 1.249 2.83 2.777 2.83a3.184 3.184 0 0 0 .714-.077 2.364 2.364 0 0 0 1.811-1.766 1.564 1.564 0 0 0 .017-.09h-2.542v-1.537h4.23c.04.224.07.448.07.743a7.526 7.526 0 0 1 0 .003c0 2.558-1.715 4.374-4.3 4.374a4.476 4.476 0 0 1-4.48-4.48 4.476 4.476 0 0 1 4.48-4.482 4.448 4.448 0 0 1 1.565.274 4.295 4.295 0 0 1 1.437.897Zm7.882 3.949h-1.92v1.92h-1.281v-1.92h-1.92v-1.28h1.92v-1.92h1.28v1.92h1.921v1.28Z" fill="#fff" fill-rule="evenodd" data-name="iconmonstr-google-plus-4"/></svg>