<svg xmlns="http://www.w3.org/2000/svg" width="28.521" height="28.521" viewBox="1624.139 45.14 28.521 28.521"><g data-name="Mask Group 2" transform="translate(-41)" clip-path="url(&quot;#a&quot;)"><g data-name="__TEMP__SVG__"><g data-name="Path 1"><path d="M1685.342 45.14h-11.883a8.343 8.343 0 0 0-8.32 8.319v11.883c0 4.575 3.743 8.318 8.32 8.318h11.883c4.575 0 8.318-3.743 8.318-8.319V53.46c0-4.576-3.743-8.32-8.319-8.32Zm5.942 8.319v11.883a5.96 5.96 0 0 1-5.943 5.943h-11.882a5.96 5.96 0 0 1-5.943-5.943V53.46a5.96 5.96 0 0 1 5.943-5.943h11.883a5.96 5.96 0 0 1 5.942 5.943Z" fill="#100082" fill-rule="evenodd"/><path d="M1685.342 45.14h-11.883a8.343 8.343 0 0 0-8.32 8.319v11.883c0 4.575 3.743 8.318 8.32 8.318h11.883c4.575 0 8.318-3.743 8.318-8.319V53.46c0-4.576-3.743-8.32-8.319-8.32Zm5.942 8.319v11.883a5.96 5.96 0 0 1-5.943 5.943h-11.882a5.96 5.96 0 0 1-5.943-5.943V53.46a5.96 5.96 0 0 1 5.943-5.943h11.883a5.96 5.96 0 0 1 5.942 5.943Z" stroke-linejoin="round" stroke-linecap="round" stroke-width="1.2" stroke="#100082" fill="transparent"/></g><g data-name="Path 2"><path d="M1687.124 53.459a1.783 1.783 0 0 1-1.783-1.783 1.783 1.783 0 0 1 1.783-1.783c.985 0 1.783.798 1.783 1.783a1.828 1.828 0 0 1 0 .003 1.78 1.78 0 0 1-.521 1.258 1.78 1.78 0 0 1-1.262.522Z" fill="#100082" fill-rule="evenodd"/><path d="M1687.124 53.459a1.783 1.783 0 0 1-1.783-1.783 1.783 1.783 0 0 1 1.783-1.783c.985 0 1.783.798 1.783 1.783a1.828 1.828 0 0 1 0 .003 1.78 1.78 0 0 1-.521 1.258 1.78 1.78 0 0 1-1.262.522Z" stroke-linejoin="round" stroke-linecap="round" stroke-width="1.2" stroke="#100082" fill="transparent"/></g><g data-name="Path 3"><path d="M1679.4 52.27a7.13 7.13 0 0 0-7.13 7.13 7.13 7.13 0 0 0 7.13 7.13 7.13 7.13 0 0 0 7.13-7.13 7.13 7.13 0 0 0-7.13-7.13Zm0 2.376a4.753 4.753 0 1 1 0 9.507 4.753 4.753 0 0 1 0-9.507Z" fill="#100082" fill-rule="evenodd"/><path d="M1679.4 52.27a7.13 7.13 0 0 0-7.13 7.13 7.13 7.13 0 0 0 7.13 7.13 7.13 7.13 0 0 0 7.13-7.13 7.13 7.13 0 0 0-7.13-7.13Zm0 2.376a4.753 4.753 0 1 1 0 9.507 4.753 4.753 0 0 1 0-9.507Z" stroke-linejoin="round" stroke-linecap="round" stroke-width="1.2" stroke="#100082" fill="transparent"/></g></g></g><defs><clipPath id="a"><path d="M0 0h32v32H0V0" data-name="Rectangle 3" transform="translate(1664 44)"/></clipPath></defs></svg>