<svg xmlns="http://www.w3.org/2000/svg" width="26.338" height="26.338" viewBox="965.487 2214.331 26.338 26.338"><path d="M973.464 2214.4a284.85 284.85 0 0 0-.237.01c-4.1.188-6.638 2.165-7.418 5.74a11.48 11.48 0 0 0-.242 1.92 172.307 172.307 0 0 0-.02.462c-.043.967-.057 1.642-.06 3.977a864.445 864.445 0 0 0 0 .991c0 3.576.015 4.025.079 5.43a10.144 10.144 0 0 0 .633 3.227c1.071 2.748 3.455 4.27 7.027 4.433 1.264.057 1.753.075 4.438.078a867.055 867.055 0 0 0 .992 0c3.576 0 4.025-.015 5.43-.078 4.095-.188 6.638-2.165 7.417-5.74a11.447 11.447 0 0 0 .241-1.92c.065-1.405.08-1.854.08-5.43 0-3.367-.013-3.96-.068-5.191a284.85 284.85 0 0 0-.01-.238c-.184-4.082-2.15-6.62-5.703-7.409a11.43 11.43 0 0 0-1.956-.25c-1.264-.059-1.755-.077-4.44-.08a864.806 864.806 0 0 0-.991 0c-3.367 0-3.961.013-5.192.068Zm10.514 2.382a160.575 160.575 0 0 0-.463-.02c-1.07-.047-1.763-.057-4.86-.057a952.72 952.72 0 0 0-.968 0c-2.64.003-3.103.02-4.353.076a8.48 8.48 0 0 0-1.997.306c-1.584.465-2.58 1.445-3.064 2.998a8.354 8.354 0 0 0-.337 2.094 178.165 178.165 0 0 0-.02.463c-.046 1.07-.057 1.762-.057 4.858a949.777 949.777 0 0 0 0 .97c.003 2.29.016 2.942.057 3.889a160.452 160.452 0 0 0 .02.462 8.467 8.467 0 0 0 .313 2.017c.466 1.57 1.443 2.569 3.009 3.051a8.355 8.355 0 0 0 2.076.332c1.389.063 1.806.076 5.322.076a950.466 950.466 0 0 0 .969 0c2.642-.003 3.103-.02 4.353-.076a8.473 8.473 0 0 0 1.997-.307c1.585-.465 2.58-1.446 3.064-2.998a8.35 8.35 0 0 0 .337-2.094 165.644 165.644 0 0 0 .02-.462c.046-1.07.056-1.761.056-4.859 0-3.096-.01-3.79-.055-4.859a150.16 150.16 0 0 0-.021-.462 8.454 8.454 0 0 0-.314-2.02c-.467-1.57-1.447-2.568-3.01-3.049a8.358 8.358 0 0 0-2.074-.33Zm-5.322 3.956a6.762 6.762 0 0 0 0 13.525 6.763 6.763 0 0 0 6.762-6.763 6.762 6.762 0 0 0-6.762-6.762Zm0 11.152a4.39 4.39 0 1 1-.001-8.779 4.39 4.39 0 0 1 0 8.779Zm7.03-12.999a1.58 1.58 0 1 0 1.579 1.58 1.58 1.58 0 0 0-1.58-1.58Z" fill="#fff" fill-rule="evenodd" data-name="iconmonstr-instagram-11"/></svg>