<svg xmlns="http://www.w3.org/2000/svg" width="34.881" height="28.337" viewBox="1684.56 45.831 34.881 28.337"><g data-name="Mask Group 3" transform="translate(-21.44 -1.44)" clip-path="url(&quot;#a&quot;)"><path d="M1707.406 57.322v-.088c1.013.56 2.093.86 3.242.895a7.109 7.109 0 0 1-2.326-2.55 6.983 6.983 0 0 1-.859-3.403 7.03 7.03 0 0 1 .968-3.595 20.375 20.375 0 0 0 6.524 5.281 19.886 19.886 0 0 0 8.223 2.197 6.978 6.978 0 0 1-.187-1.576 7.715 7.715 0 0 1 0-.053c0-1.975.698-3.66 2.096-5.059a6.882 6.882 0 0 1 4.966-2.098 8.303 8.303 0 0 1 .093 0 6.867 6.867 0 0 1 5.056 2.085 8.35 8.35 0 0 1 .168.173 14.253 14.253 0 0 0 4.543-1.738 6.918 6.918 0 0 1-3.143 3.96 14.301 14.301 0 0 0 4.11-1.124 14.49 14.49 0 0 1-3.574 3.695c.013.256.02.542.02.859a24.511 24.511 0 0 1 .001.068 20.48 20.48 0 0 1-.837 5.746 20.498 20.498 0 0 1-2.556 5.506 21.74 21.74 0 0 1-4.097 4.66 17.19 17.19 0 0 1-3.722 2.403 21.15 21.15 0 0 1-1.992.835 20.566 20.566 0 0 1-6.207 1.188 23.572 23.572 0 0 1-.946.019 19.918 19.918 0 0 1-10.97-3.216 16.006 16.006 0 0 0 1.294.093 13.988 13.988 0 0 0 .413.006c3.317 0 6.28-1.022 8.889-3.066a6.943 6.943 0 0 1-4.156-1.428 7.033 7.033 0 0 1-2.526-3.54 7.206 7.206 0 0 0 1.348.129c.638 0 1.266-.083 1.884-.25a6.975 6.975 0 0 1-4.109-2.466 6.924 6.924 0 0 1-1.631-4.548Z" fill="#100082" fill-rule="evenodd" data-name="google"/></g><defs><clipPath id="a"><path d="M0 0h34v34H0V0" data-name="Rectangle 5" transform="translate(1706.44 44.44)"/></clipPath></defs></svg>