<svg xmlns="http://www.w3.org/2000/svg" width="26.338" height="26.338" viewBox="1002.798 2214.331 26.338 26.338"><path d="M1015.967 2214.331c-7.272 0-13.169 5.897-13.169 13.17a13.17 13.17 0 0 0 13.17 13.168c7.272 0 13.168-5.896 13.168-13.169 0-7.272-5.896-13.169-13.169-13.169Zm6.666 10.968a8.474 8.474 0 0 0-.01-.383 6.327 6.327 0 0 0 1.573-1.634 6.288 6.288 0 0 1-1.81.497 3.165 3.165 0 0 0 1.387-1.744 6.287 6.287 0 0 1-2.002.765 3.164 3.164 0 0 0-.458-.402 3.145 3.145 0 0 0-1.842-.593 3.157 3.157 0 0 0-3.155 3.15 3.17 3.17 0 0 0 .083.72 9.06 9.06 0 0 1-.26-.017 8.948 8.948 0 0 1-6.236-3.276 3.136 3.136 0 0 0-.424 1.464c-.014.376.039.753.156 1.11a3.138 3.138 0 0 0 1.243 1.634 3.177 3.177 0 0 1-.06-.002 3.144 3.144 0 0 1-1.367-.392c-.034 1.461 1.013 2.826 2.528 3.131a3.141 3.141 0 0 1-.827.11 3.19 3.19 0 0 1-.597-.056 3.16 3.16 0 0 0 2.945 2.19 6.334 6.334 0 0 1-3.912 1.349 6.428 6.428 0 0 1-.754-.045 9.027 9.027 0 0 0 .816.465 8.907 8.907 0 0 0 4.015.952 10.327 10.327 0 0 0 .157-.001c5.589-.086 8.81-4.702 8.81-8.992Z" fill="#fff" fill-rule="evenodd" data-name="iconmonstr-twitter-4"/></svg>